<svg version="1" xmlns="http://www.w3.org/2000/svg" width="5689.333" height="5689.333" viewBox="0 0 4267.000000 4267.000000"><path d="M1141.8 229.5c-.2.2-3.9.6-8.3.9-4.4.3-9.1.8-10.5 1-1.4.3-4.7.7-7.5 1-19.9 2-62.7 13.2-81 21.2-2.2 1-4.5 1.8-5.1 2-2.2.4-31 14.8-39.2 19.6-16.2 9.4-39 25.3-49.1 34.3-19.6 17.2-33.3 31.3-46.8 48-26.2 32.6-45.5 68-58.6 107.5-6 17.9-11 38.8-13.2 54.5-.3 2.2-.8 5.1-1 6.5-.3 1.4-.7 4.5-1 7-.3 2.5-.8 6.7-1.1 9.5-.4 2.7-.8 241-.9 529.5-.1 288.5-.5 537.3-.9 553-.9 39.7-.9 77.2-.1 106 .4 13.5.9 477.2 1 1030.5.1 553.3.5 1008.5.8 1011.5 1.2 11.1 1.8 15.6 2.2 18 .3 1.4.7 4.3 1 6.5.2 2.2.7 5.1 1 6.5.3 1.4 1.2 5.9 2 10 3.6 18.9 13.2 48.9 21.5 67.5 33.3 74.7 89.5 133.7 162 170.1 16.5 8.2 39.1 17 60.5 23.3 25 7.5 60.2 12.3 91 12.4 12.5.1 32.7-.8 39-1.8 4.3-.6 11.4-1.5 16-2.1 6.5-.8 31.4-6.2 39-8.5 38.1-11.2 66-24 97-44.4 35.7-23.6 65.6-52.4 91-87.8 7.7-10.7 19.9-30.7 24.1-39.2 1-2.2 2.6-5.1 3.5-6.5 1.8-2.9 10.6-23.2 14.4-33.5 7.1-18.7 13.7-43.7 17-64.3.3-1.7.7-4.4.9-6 .3-1.5.8-5.2 1.1-8.2.3-3 .9-6.9 1.2-8.5.4-1.7.8-196.7 1-433.4.2-236.8.5-430.7.7-430.9.3-.2 8.7 4.5 18.8 10.6 21.1 12.6 48.2 27.7 68.3 38.2 7.6 4 14.6 7.6 15.5 8.1 4.4 2.5 48.5 23.6 61.5 29.4 55.9 25.1 112.9 46.5 169 63.5 12.7 3.9 24.4 7.4 26 8 9 2.8 55.1 14.7 74.1 19 4.7 1.1 5.9 1.4 11.2 2.4 1.3.3 3.1.7 4 1 .9.3 2.8.7 4.2 1 1.4.3 11.5 2.3 22.5 4.5 20.8 4.2 25.2 5 29.7 5.6 1.5.2 5.5.9 9 1.6 3.5.6 7.2 1.3 8.3 1.4 3.4.5 9.8 1.5 15.7 2.6 3.2.5 7.7 1.2 10 1.4 3.8.4 15.7 2.1 21.4 3 1.2.2 4.8.6 8 1 3.3.3 9.1 1 12.9 1.5 3.9.5 9.7 1.2 13 1.5 3.3.3 7.8.8 10 1 5.7.6 16.2 1.6 21.5 2 15 1.2 19.4 1.6 27.5 2.1 16.4 1 20.8 1.3 43.5 2 38.1 1.4 101.7.9 132.5-1 2.8-.2 10-.6 16-1 6.1-.4 13-.9 15.5-1.1 2.5-.2 7.9-.7 12.1-.9 4.1-.3 9.3-.8 11.5-1 2.1-.3 6.8-.8 10.4-1.1 3.6-.4 7.9-.8 9.5-1 1.7-.2 5.9-.6 9.5-.9 3.6-.4 7.6-.9 9-1.1 1.4-.2 5-.7 8-1 3-.3 6.6-.8 8-1 1.4-.2 5-.7 8-1 5.5-.6 8.5-1.1 12.6-1.9 1.2-.2 4.5-.7 7.5-1.1 3-.3 6.1-.8 6.9-1 .8-.2 3.5-.7 6-1 2.5-.3 8.1-1.2 12.5-2s9.6-1.7 11.5-2c1.9-.3 4.6-.8 6-1 4.6-.9 10-2 21.7-4.1 1.6-.3 6.9-1.4 11.8-2.4 5-1.1 10.1-2.2 11.5-2.4 2.5-.5 15.2-3.4 18-4.1 2.3-.6 15.2-3.5 18-4.1 1.4-.2 6.8-1.6 12-3 5.2-1.5 10.3-2.8 11.2-2.9 3.3-.7 21.2-5.6 40.3-11.2 10.5-3 20.6-5.9 22.5-6.5 7.6-2.1 60.4-20 75.5-25.6 22.4-8.3 60.1-23.4 74-29.7 1.7-.8 10.2-4.6 19-8.5 30.7-13.8 65-30.8 92-45.7 3.3-1.8 7.1-3.8 8.5-4.5 1.4-.7 6.8-3.7 12-6.7 5.2-2.9 11.1-6.2 13-7.3 9.2-5.2 47.2-28.2 55-33.2 41.5-27.1 64-42.8 93.1-64.6 10.7-8.1 20.4-15.4 21.5-16.3 1-.9 4.8-3.9 8.4-6.7 11-8.7 34.7-28.2 43-35.3 5.3-4.6 26.5-23.3 28-24.7.9-.8 6.5-6 12.5-11.5 30.4-28 61.3-59.2 91.7-92.6 1.3-1.4 5.2-5.8 8.8-9.8 3.6-4.1 7-7.9 7.5-8.5.6-.6 6.4-7.4 12.9-15.1 6.5-7.7 12.8-15.1 13.9-16.5 1.2-1.4 4-4.8 6.1-7.5 2.2-2.8 4.2-5.2 4.6-5.5.3-.3 2.1-2.5 4-5s3.7-4.7 4-5c.3-.3 3.4-4.3 7-9 3.5-4.7 6.7-8.7 7-9 .3-.3 3.7-4.8 7.5-10s7.4-10 8-10.6c.5-.6 1.7-2.2 2.5-3.4.8-1.2 4.7-6.5 8.5-11.8 22.5-30.9 49.8-72.7 71-108.7 4.8-8.3 9.6-16.4 10.5-18 2-3.3 4.9-8.5 8.8-15.5 1.3-2.5 3.7-6.8 5.2-9.5 17.1-31 41.9-81.6 55.2-112.4 2.7-6.3 5.5-12.9 6.3-14.5 4.9-10.8 16.4-40.1 27-68.6 6.3-17.1 20.8-59.8 22-64.7.3-1 1.7-5.6 3.1-10.3 9.5-30.5 24.9-89.7 29.8-114 .3-1.4.7-3.6 1-5 .3-1.4.8-3.6 1.1-5 .3-1.4.7-3.6 1-5 .3-1.4.7-3.6 1-5 .3-1.4.7-3.6 1-5 .3-1.4.7-3.6 1-5 1-4.6 4.7-25.3 6-33 .3-1.9.8-4.7 1-6.3.3-1.5.7-3.9 1-5.5.6-3.8 2.3-14.9 3-19.7.4-2.2.8-5.1 1-6.5.2-1.4.9-6.3 1.5-11 1.3-9.6 1.8-13.6 2.4-18.3.3-1.7.8-5.9 1.1-9.2.3-3.3.8-7.7 1-9.8 1.1-8.4 1.4-11.5 2-18.2.3-3.9.8-8.8 1-11 .4-3.8.8-8.8 2-25.5.3-4.1.8-10 1-13 .5-7.2 1.6-29.4 2.1-45 .5-14.5.4-85.4 0-95-.2-3.6-.7-13.7-1.1-22.5-.4-8.8-.8-17.6-1-19.5-.2-1.9-.6-8.5-1-14.5-.3-6.1-.8-12.6-1-14.5-.2-1.9-.7-6.7-1-10.5-1.2-14.2-1.5-17.1-2.1-22.5-.9-9-2.1-18.8-3-25-.3-1.9-.7-5.8-1-8.6-.2-2.8-.6-6-.8-7.1-.3-1.1-.7-4.4-1.1-7.3-.4-2.9-.8-6-1-6.9-.2-.9-.6-4.4-1-7.6-.4-3.3-.9-6.9-1.1-8-.7-3.7-1.3-6.9-2.3-13.5-.6-3.6-1.3-7.4-1.5-8.5-.2-1.1-.7-4-1.1-6.5-.8-5.1-1.2-7.4-2-11-.2-1.4-.7-3.9-1-5.5-.3-1.7-.7-4.1-1-5.5-.3-1.4-1.2-5.9-2-10-2.4-12.5-2-10.4-7.1-33.5-2.5-11.3-5.8-25.6-7-30-.3-1.1-.7-3.1-1-4.5-.3-1.4-1.9-7.7-3.6-14-21.4-81.3-48.5-157.8-82.3-232.5-16-35.5-44.5-91.2-62.5-122-2.6-4.5-24.9-41.7-26.3-44-8.7-13.9-13.8-21.7-23.6-36.5-11.1-16.8-24.9-37-26.1-38-.3-.3-1.7-2.3-3.2-4.5-3.7-5.4-8.6-12.4-9.8-13.8-.6-.7-6.1-8-12.3-16.2-6.2-8.3-12-15.9-12.9-17-.9-1.1-6.5-8.1-12.4-15.5-11.6-14.7-18.6-23.2-19.4-24-.3-.3-6.2-7-13-15-6.9-8-14.1-16.3-16.1-18.5-2-2.2-6.2-6.9-9.4-10.5-28.5-31.6-80.5-83.3-104.9-104.3-1.2-1-5-4.4-8.5-7.5-3.6-3.1-8.5-7.5-11-9.7-2.5-2.3-7.5-6.5-11.1-9.5-3.6-3-7.1-6.1-7.9-6.9-3.5-3.2-46-36.8-59.6-47-8.2-6.2-15.7-11.8-16.5-12.4-11.2-8.8-64.4-44.7-86.3-58.3-13.7-8.5-34.9-21.4-35.2-21.4-.1 0-6.8-3.8-15-8.5-8.1-4.7-14.9-8.5-15-8.5-.2 0-3.5-1.8-7.3-4-52.7-29.8-133-66.1-200.6-90.6-28.3-10.3-89.5-30-98.9-31.9-.9-.2-8.1-2.2-16-4.3-22.6-6.3-75.6-18.9-91.2-21.6-1.6-.3-4.1-.8-5.5-1.1-1.4-.3-6.3-1.2-11-2.1-4.7-.8-11.6-2.1-15.5-2.9-3.8-.7-8.8-1.6-11-1.9-4.6-.7-8.7-1.4-13-2.1-1.6-.3-6.2-1-10.2-1.6-3.9-.5-8.2-1.2-9.5-1.5-1.3-.2-4.3-.7-6.8-.9-2.5-.3-5.4-.7-6.5-1-1.1-.2-4.7-.6-8-1-3.3-.3-7-.8-8.3-1.1-1.2-.2-4.8-.7-8-1-3.1-.3-6.8-.7-8.2-.9-1.4-.2-5.6-.7-9.5-1-3.8-.4-8.1-.8-9.5-1-1.4-.2-5.9-.7-10-1-4.1-.4-9.1-.8-11-1-1.9-.2-7.1-.6-11.5-.9-4.4-.4-11.4-.9-15.5-1.2-4.1-.3-10.4-.7-14-.9-3.6-.2-13.7-.7-22.5-1.1-30.9-1.6-117.7-.9-147.5 1.1-33.9 2.3-45.3 3.2-52 4-1.9.2-6.4.7-10 1-3.6.3-8.1.8-10 1-1.9.2-6 .7-9 1.1-3 .3-7.1.7-9 .9-4.2.4-12.5 1.4-16 2-2.4.4-5.9.9-14.5 2-2.2.2-5 .7-6.2.9-1.1.3-4.3.8-7 1.1-12 1.7-63.5 10.8-72.8 12.9-1.1.2-6.5 1.4-12 2.6-5.5 1.2-10.8 2.3-11.9 2.5-63.8 13.8-138.5 36.3-204.2 61.5-23.7 9.1-62.2 25.3-80.1 33.6-4 1.9-10.8 5-15 7-12.3 5.7-44.7 21.8-56.8 28.2-23.6 12.5-31.1 16.6-34.7 18.9-2.1 1.2-3.9 2.3-4.2 2.3-1.1 0-50.3 29.3-61.6 36.7-3.6 2.4-6.7 4.3-7 4.3-.3 0-2.1-4.2-3.9-9.3-7.5-20.1-27.1-56-40.2-73.7-2.7-3.6-6.2-8.3-7.8-10.5-1.6-2.2-3.8-4.9-4.8-6-1-1.2-4.2-5-7.2-8.5-11-13.1-32.9-33.8-50.6-47.9-19.3-15.2-49.4-32.8-74-43.1-5.5-2.3-11.3-4.8-13-5.5-8.8-3.9-44.5-14-56-15.9-1.6-.3-6.8-1.2-11.5-2s-11.6-1.7-15.5-2.1c-3.8-.4-8.1-.9-9.5-1.2-2.6-.5-49.7-1.2-50.2-.8zm1150.7 687.9c11 .4 21.6.9 23.5 1.1 1.9.2 7.1.7 11.5 1 13.9 1 18.7 1.4 22.4 2 2 .2 5.6.7 8.1 1 4.5.5 10.2 1.3 15 2 1.4.2 6.1.9 10.5 1.5s10 1.5 12.5 2c2.5.6 6.1 1.2 8 1.5 1.9.3 6.7 1.2 10.5 2 3.9.8 8.1 1.6 9.5 1.9 2.1.3 10.7 2.4 42 10.1 17.3 4.3 71.2 22.4 84.5 28.5 1.1.5 7.2 3.1 13.5 5.8 26.9 11.6 54.5 25.3 77.2 38.3 5.1 3 10.1 5.8 11 6.4 6.7 3.9 21.5 13.2 33.6 21.4 7.9 5.3 15 10 15.9 10.6.9.5 2.4 1.5 3.2 2.2.9.7 7.5 5.6 14.6 10.9 41.2 30.8 82.6 68.9 116 106.9 3.8 4.4 7.2 8.2 7.5 8.5.3.3 3.7 4.3 7.5 9s7.4 9 8 9.7c1.9 2.1 15.4 19.8 21.7 28.3 14.1 19.2 35.9 52.9 46.8 72.5 1.8 3.3 4.9 8.7 6.7 12 10.6 18.7 32.9 66.8 40.9 88 14.2 37.7 29.9 90.7 34 115 .3 1.6.9 4.6 1.4 6.5.5 1.9 1.2 5.1 1.5 7 .3 1.9 1 5.5 1.5 8 .8 3.8 1.9 10.2 4.5 27.5 1.8 11.3 4.1 31.4 5 43.5.3 4.1.8 10 1.1 13 2.2 28.3 2.2 86-.1 109.9-.1 2-.6 7.6-1 12.5-.4 5-.8 9.7-1 10.5-.1.9-.6 4.7-.9 8.6-.4 3.8-.9 8.1-1.1 9.5-.3 1.4-.7 4.7-1 7.4-.2 2.6-.6 5.6-.9 6.5-.3.9-.7 3.6-1 6.1-.3 2.5-.8 5.6-1.1 7-.2 1.3-.7 4-1 6-.3 2-.8 4.7-1 6-.3 1.4-1.2 6.1-2 10.5-5.7 30-14.9 65-25 95.2-5.6 16.8-16.8 46.4-20.9 55.7-.8 1.7-2.8 6.2-4.5 9.9-1.7 3.8-3.1 7-3.1 7.3 0 1.4-20.6 42-27.6 54.6-12.2 21.7-33.3 55.6-40.6 65.3-.5.5-6.2 8.4-12.9 17.4-11.7 15.8-19.6 25.9-30.3 38.6-8.4 9.9-9.3 10.8-20.4 23-10.2 11.3-30.8 32-42.7 43-6.5 6-12.6 11.8-13.7 12.8-6.2 5.9-36.3 30.4-49.6 40.4-23.4 17.6-56.1 39.1-79.7 52.3-16.7 9.4-22.7 12.6-36 19.3-23.4 11.7-47.8 22.3-70.5 30.7-6.3 2.3-12.4 4.6-13.5 5.1-3.2 1.4-37.7 12.6-41 13.3-.5.2-3 .9-5.5 1.6-2.5.7-4.9 1.5-5.5 1.6-.5.1-8.1 2-16.7 4.3-8.7 2.2-17.4 4.2-19.4 4.6-2 .3-4 .7-4.4 1-.3.2-2.2.7-4.1 1-1.9.3-4.1.8-4.9 1-.8.2-3.1.7-5 1-1.9.3-6.9 1.2-11 2s-13.6 2.4-21 3.5c-13.5 2-16.2 2.3-25.5 3.5-2.7.3-6.3.8-8 1-1.6.2-6.6.7-11 1-4.4.4-9.3.8-11 1-22.8 2.6-101.5 2.6-123 0-1.6-.2-6.4-.6-10.5-.9-8.8-.8-13.6-1.3-27-3-2.5-.4-6.1-.8-8-1-10.3-1.2-47.9-8.1-60.5-11.1-18.2-4.3-40.2-10-49-12.6-23.1-7-57.9-19.3-72-25.4-1.6-.8-5.2-2.2-8-3.3-2.7-1.1-7.9-3.3-11.5-5-3.6-1.6-8.7-4-11.5-5.2-19.4-8.6-51.1-25.6-77-41.3-16.7-10.1-49.8-32.6-59.8-40.7-.7-.5-7-5.5-14.2-11.1-12.5-9.9-29.6-24.2-38-32-12.7-11.7-19.9-18.5-29.3-27.9-82.7-82.7-143.7-180.2-181.8-290.5-5.4-15.7-16.7-53.4-17.8-59.1-.2-1.6-1.1-5.4-1.9-8.4-.8-3-2-8-2.6-11-1.1-5.2-1.3-6.5-2.6-12.3-1.6-7.5-3.7-18.4-5-26.2-2.6-14.9-2.6-15.2-4-26-.4-2.8-.8-6.1-1-7.5-.2-1.4-.6-5-1-8-.3-3-.8-6.6-1-8-1.5-8.9-2-29.5-2-81 0-52.2.3-66.1 2-79.7 1.9-15.2 3.6-29.2 4-31.3.2-1.4.6-4.3 1-6.5.5-4.1 3.9-22.9 4.8-27.5.3-1.4.8-4.1 1.1-6 2.4-16.5 15.4-64.4 25.4-94 16.1-47.7 43.1-106.2 65.3-141.7 2.1-3.4 3.9-6.5 3.9-6.8 0-.3.8-1.8 1.8-3.3 1.1-1.5 6.8-10.1 12.7-19.2 13.5-20.6 26.4-38.6 38.8-54 8.5-10.6 13.3-16.6 13.7-17 .3-.3 4.8-5.4 10-11.5 20.9-24.1 51.6-55 73.4-73.7 2.1-1.8 5.1-4.4 6.5-5.7 10.6-9.7 51.3-40.8 67.6-51.6 3.3-2.2 6.2-4.3 6.5-4.6.3-.3 1.2-.8 2-1.2.8-.4 4.9-2.9 9-5.6 28.7-19 75.9-44.1 108.5-57.8 3.3-1.4 7.8-3.3 10-4.2 2.2-1 6.7-2.8 10-4 3.3-1.3 6.9-2.7 8-3.2 3.9-1.7 37.9-13.5 44.5-15.4 2.5-.7 9-2.7 14.5-4.3 17.8-5.4 37.5-10.4 50.5-12.8 1.4-.3 4.1-.9 6-1.4 1.9-.5 5.3-1.2 7.5-1.5 2.2-.4 4.8-.8 5.7-1.1 1-.3 3-.7 4.5-1 1.6-.2 3.9-.7 5.3-.9 1.4-.3 4.3-.7 6.5-1 2.2-.3 5.2-.8 6.7-1.1 1.5-.3 3.9-.7 5.5-.9 1.5-.2 4.2-.6 5.8-.9 1.7-.3 5.3-.8 8-1.1 2.8-.3 6.6-.7 8.5-1 1.9-.2 6.2-.7 9.5-1.1 3.3-.3 7.1-.7 8.5-1 1.4-.2 6.6-.6 11.5-1 5-.3 11-.8 13.5-1 2.5-.2 15.1-.7 28-1 12.9-.4 23.6-.8 23.8-.9.1-.1 1.5-.1 3 0 1.5.2 11.7.6 22.7.9z"/></svg>