<?xml version="1.0" encoding="iso-8859-1"?>
<!-- Generator: Adobe Illustrator 19.0.0, SVG Export Plug-In . SVG Version: 6.00 Build 0)  -->
<svg version="1.1" id="Capa_1" xmlns="http://www.w3.org/2000/svg" xmlns:xlink="http://www.w3.org/1999/xlink" x="0px" y="0px"
	 viewBox="0 0 469.293 469.293" style="enable-background:new 0 0 469.293 469.293;" xml:space="preserve">
<g>
	<path style="fill:#FFC107;" d="M352.017,362.627c-5.891,0-10.667-4.776-10.667-10.667c0-5.891,4.776-10.667,10.667-10.667
		c35.346,0,64-28.654,64-64v-74.667c0-17.673-14.327-32-32-32h-21.333c-5.891,0-10.667-4.776-10.667-10.667
		s4.776-10.667,10.667-10.667h21.333c29.455,0,53.333,23.878,53.333,53.333v74.667C437.35,324.422,399.145,362.627,352.017,362.627z
		"/>
	<path style="fill:#FFC107;" d="M341.35,180.227c-0.48-4.814-4.141-8.702-8.917-9.472l-228.288-36.608
		c-2.895-0.453-5.848,0.32-8.149,2.133c-2.323,1.77-3.819,4.415-4.139,7.317l-27.84,249.856c-0.648,5.855,3.573,11.127,9.428,11.775
		c0.411,0.046,0.825,0.067,1.238,0.065h277.333c5.891,0.03,10.69-4.722,10.72-10.613c0.002-0.374-0.016-0.748-0.053-1.12
		L341.35,180.227z"/>
</g>
<g>
	<path style="fill:#FAFAFA;" d="M138.684,362.627h-0.704c-5.879-0.375-10.341-5.445-9.966-11.324
		c0.001-0.015,0.002-0.031,0.003-0.046l10.667-160c0.519-5.826,5.527-10.214,11.371-9.963c5.878,0.388,10.329,5.467,9.942,11.346
		c0,0.001,0,0.003,0,0.004l-10.667,160C148.969,358.257,144.31,362.627,138.684,362.627z"/>
	<path style="fill:#FAFAFA;" d="M213.35,362.627c-5.891,0-10.667-4.776-10.667-10.667V181.293c0-5.891,4.776-10.667,10.667-10.667
		s10.667,4.776,10.667,10.667V351.96C224.017,357.851,219.241,362.627,213.35,362.627z"/>
	<path style="fill:#FAFAFA;" d="M288.017,362.627c-5.642,0.011-10.317-4.374-10.667-10.005l-10.667-170.667
		c-0.376-5.879,4.085-10.95,9.964-11.325c0.014-0.001,0.027-0.002,0.041-0.003c5.779-0.454,10.832,3.863,11.285,9.642
		c0.009,0.114,0.016,0.228,0.021,0.342l10.667,170.667c0.365,5.879-4.105,10.941-9.984,11.307L288.017,362.627z"/>
</g>
<path style="fill:#FFE082;" d="M330.214,86.275c-5.281-52.661-52.252-91.07-104.913-85.789
	c-40.344,4.046-73.776,33.045-83.482,72.413c-10.785-5.858-22.862-8.931-35.136-8.939c-41.237-0.041-74.7,33.355-74.741,74.592
	s33.355,74.7,74.592,74.741c29.089,0.029,55.546-16.838,67.796-43.221c31.327,25.374,75.155,28.517,109.781,7.872
	c9.762,9.049,22.593,14.058,35.904,14.016c29.455,0.007,53.339-23.865,53.347-53.32C373.37,113.106,355.278,91.15,330.214,86.275z"
	/>
<path style="fill:#FFA000;" d="M352.017,383.96H74.684c-23.564,0-42.667,19.103-42.667,42.667c0,23.564,19.103,42.667,42.667,42.667
	h277.333c23.564,0,42.667-19.103,42.667-42.667C394.684,403.062,375.581,383.96,352.017,383.96z"/>
<g>
</g>
<g>
</g>
<g>
</g>
<g>
</g>
<g>
</g>
<g>
</g>
<g>
</g>
<g>
</g>
<g>
</g>
<g>
</g>
<g>
</g>
<g>
</g>
<g>
</g>
<g>
</g>
<g>
</g>
</svg>
