<?xml version="1.0" encoding="utf-8"?>
<!-- Generator: Adobe Illustrator 19.0.0, SVG Export Plug-In . SVG Version: 6.00 Build 0)  -->
<svg version="1.1" xmlns="http://www.w3.org/2000/svg" xmlns:xlink="http://www.w3.org/1999/xlink" x="0px" y="0px"
	 viewBox="0 0 256 256" style="enable-background:new 0 0 256 256;" xml:space="preserve">
<style type="text/css">
	.st0{display:none;}
	.st1{display:inline;fill:#F8F4FF;}
	.st2{display:inline;fill:#FFFFFF;}
	.st3{display:inline;fill:#EEE6FF;}
	.st4{opacity:0.2;fill:#C6ABFF;}
	.st5{fill:#A759FF;}
	.st6{fill:#FFFFFF;}
	.st7{opacity:0.3;fill:#9130FF;}
	.st8{fill:#E8DDFF;}
	.st9{fill:none;stroke:#9130FF;stroke-width:1.5;stroke-miterlimit:10;}
	.st10{opacity:0.3;fill:#DDCDFF;}
	.st11{fill:none;stroke:#9130FF;stroke-width:1.5;stroke-linecap:round;stroke-miterlimit:10;}
	.st12{fill:#9130FF;}
	.st13{fill:#C6ABFF;}
	.st14{opacity:0.3;}
	.st15{fill:#6D24BF;}
	.st16{fill:#BD83FF;}
	.st17{fill:none;stroke:#FFFFFF;stroke-width:1.5;stroke-miterlimit:10;}
</style>
<g id="bg" class="st0">
	<rect id="XMLID_46_" x="-122" y="128" class="st1" width="250" height="250"/>
</g>
<g id="Bg_2" class="st0">
	<rect id="XMLID_52_" x="128" y="128" class="st2" width="250" height="250"/>
</g>
<g id="BG_3" class="st0">
	<rect id="XMLID_1_" x="-122" y="-122" class="st2" width="250" height="250"/>
</g>
<g id="BG_4" class="st0">
	<rect id="XMLID_47_" x="128" y="-122" class="st3" width="250" height="250"/>
</g>
<g id="Communication">
	<g id="XMLID_141_">
		<g id="XMLID_721_">
			<path id="XMLID_737_" class="st4" d="M216,180.5c0-12.4-2.6-24.1-7.4-34.7c1.7-3.5,2.7-7.5,2.7-11.7c0-14.9-12.1-26.9-26.9-26.9
				c-2.8,0-5.5,0.4-8,1.2c-13.2-8.4-29-13.3-45.8-13.3c-2.1,0-4.2,0.1-6.2,0.2c-3.7-2.8-8.3-4.4-13.2-4.4c-9.4,0-17.4,5.9-20.6,14.1
				c-6.5,3.4-12.5,7.7-17.8,12.6c-1.7-0.4-3.5-0.6-5.4-0.6c-13.5,0-24.4,10.9-24.4,24.4c0,5.9,2.1,11.3,5.5,15.5
				c-2.2,7.5-3.3,15.4-3.3,23.6H216z"/>
			<path id="XMLID_736_" class="st4" d="M192.6,180.5c0-34.3-27.8-62.1-62.1-62.1s-62.1,27.8-62.1,62.1H192.6z"/>
			<circle id="XMLID_735_" class="st4" cx="219.8" cy="147.9" r="4.9"/>
			<circle id="XMLID_734_" class="st4" cx="149.2" cy="87.2" r="7.5"/>
			<circle id="XMLID_733_" class="st4" cx="77.6" cy="105.5" r="3.2"/>
			<circle id="XMLID_732_" class="st4" cx="178.7" cy="99.7" r="3.2"/>
			<circle id="XMLID_731_" class="st4" cx="107.9" cy="77.9" r="3.2"/>
			<circle id="XMLID_730_" class="st4" cx="218" cy="159.7" r="1.3"/>
			<circle id="XMLID_729_" class="st4" cx="177.2" cy="77" r="1"/>
			<circle id="XMLID_728_" class="st4" cx="78.9" cy="81.9" r="1.3"/>
			<circle id="XMLID_727_" class="st4" cx="24.9" cy="110.6" r="1.7"/>
			<circle id="XMLID_726_" class="st4" cx="231.1" cy="123.2" r="1.7"/>
			<circle id="XMLID_725_" class="st4" cx="52.4" cy="103.7" r="7.3"/>
			<circle id="XMLID_724_" class="st4" cx="31" cy="156.7" r="1.7"/>
			<circle id="XMLID_723_" class="st4" cx="214.9" cy="105.5" r="7"/>
			<circle id="XMLID_722_" class="st4" cx="31" cy="137.4" r="6.9"/>
		</g>
		<g id="XMLID_558_">
			<path id="XMLID_451_" class="st5" d="M109.6,153.5H96.7H83.3H67.6c-1.3,0-2.3,1-2.3,2.3v23.1c0,1.3,1,2.3,2.3,2.3h42
				c1.3,0,2.3-1,2.3-2.3v-23.1C112,154.6,110.9,153.5,109.6,153.5z"/>
			<polygon id="XMLID_42_" class="st6" points="105,153.5 94.3,153.5 84.9,153.5 72.3,153.5 72.3,181.3 72.3,181.3 105,181.3 
				105,181.3 			"/>
			<path id="XMLID_450_" class="st7" d="M109.6,177.8h-42c-1.3,0-2.3-1-2.3-2.3v3.5c0,1.3,1,2.3,2.3,2.3h42c1.3,0,2.3-1,2.3-2.3
				v-3.5C112,176.7,110.9,177.8,109.6,177.8z"/>
			<path id="XMLID_591_" class="st6" d="M84.2,130.9v16c0,0.2,0.1,0.3,0.3,0.3h3.7v2.8v3.7c0,0.3,0.4,0.4,0.5,0.2l7-6.7h10.7
				c0.2,0,0.3-0.1,0.3-0.3v-16c0-0.2-0.1-0.3-0.3-0.3H84.5C84.3,130.6,84.2,130.7,84.2,130.9z"/>
			<path id="XMLID_595_" class="st8" d="M106.4,130.6H84.5c-0.2,0-0.3,0.1-0.3,0.3v3.2h18.7c0.2,0,0.3,0.1,0.3,0.3v12.8h3.2
				c0.2,0,0.3-0.1,0.3-0.3v-16C106.7,130.7,106.6,130.6,106.4,130.6z"/>
			<path id="XMLID_449_" class="st9" d="M84.5,130.6h21.9c0.2,0,0.3,0.1,0.3,0.3v16c0,0.2-0.1,0.3-0.3,0.3H95.7l-7,6.7
				c-0.2,0.2-0.5,0.1-0.5-0.2V150v-2.8h-3.7c-0.2,0-0.3-0.1-0.3-0.3v-16C84.2,130.7,84.3,130.6,84.5,130.6z"/>
			<g id="XMLID_438_">
				<path id="XMLID_447_" class="st9" d="M86,168.2v3.2l-5.7,1.9c-0.4,0.1-0.7,0.5-0.7,1v3.5"/>
				<path id="XMLID_446_" class="st9" d="M97.4,177.8v-3.5c0-0.4-0.3-0.8-0.7-1l-5.7-1.9v-3.2"/>
				<path id="XMLID_445_" class="st9" d="M92.8,161c0-2.4-1.9-4.3-4.3-4.3c-2.4,0-4.3,1.9-4.3,4.3l0.4,5.2c0.1,0.7,0.5,1.3,1.1,1.6
					l2.1,1.4h1.4l2.2-1.4c0.6-0.3,1-0.9,1.1-1.6L92.8,161z"/>
				<polyline id="XMLID_443_" class="st9" points="86,171.4 87.6,173.3 89.5,173.3 91.1,171.4 				"/>
			</g>
			<path id="XMLID_437_" class="st9" d="M83.2,153.5H67.5c-1.3,0-2.3,1-2.3,2.3v23.1c0,1.3,1,2.3,2.3,2.3h42c1.3,0,2.3-1,2.3-2.3
				v-23.1c0-1.3-1-2.3-2.3-2.3H96.6"/>
			<line id="XMLID_436_" class="st9" x1="72.3" y1="153.5" x2="72.3" y2="181.3"/>
			<line id="XMLID_435_" class="st9" x1="68.9" y1="171.8" x2="68.9" y2="162.9"/>
			<line id="XMLID_434_" class="st9" x1="104.9" y1="181.3" x2="104.9" y2="153.5"/>
			<line id="XMLID_433_" class="st9" x1="88.1" y1="138.6" x2="90.8" y2="138.6"/>
			<line id="XMLID_431_" class="st9" x1="94.1" y1="138.6" x2="96.8" y2="138.6"/>
			<line id="XMLID_422_" class="st9" x1="100.1" y1="138.6" x2="102.9" y2="138.6"/>
		</g>
		<g id="XMLID_157_">
			<path id="XMLID_742_" class="st6" d="M154,106.4c0-2.1-1.7-3.8-3.8-3.8h-37c-2.1,0-3.8,1.7-3.8,3.8v71.1c0,2.1,1.7,3.8,3.8,3.8
				h37c2.1,0,3.8-1.7,3.8-3.8V106.4z"/>
			<rect id="XMLID_741_" x="109.5" y="114.7" class="st5" width="44.5" height="55.4"/>
			<path id="XMLID_740_" class="st7" d="M150.2,102.7H145c2.1,0,3.8,1.7,3.8,3.8v71.1c0,2.1-1.7,3.8-3.8,3.8h5.2
				c2.1,0,3.8-1.7,3.8-3.8v-71.1C154,104.4,152.3,102.7,150.2,102.7z"/>
			<path id="XMLID_739_" class="st10" d="M113.2,102.7h5.2c-2.1,0-3.8,1.7-3.8,3.8v71.1c0,2.1,1.7,3.8,3.8,3.8h-5.2
				c-2.1,0-3.8-1.7-3.8-3.8v-71.1C109.5,104.4,111.1,102.7,113.2,102.7z"/>
			<path id="XMLID_190_" class="st9" d="M154,177.5c0,2.1-1.7,3.8-3.8,3.8h-37c-2.1,0-3.8-1.7-3.8-3.8v-71.1c0-2.1,1.7-3.8,3.8-3.8
				h37c2.1,0,3.8,1.7,3.8,3.8V177.5z"/>
			<line id="XMLID_187_" class="st9" x1="109.5" y1="114" x2="154" y2="114"/>
			<line id="XMLID_713_" class="st9" x1="134.8" y1="108.6" x2="124.6" y2="108.6"/>
			<line id="XMLID_186_" class="st9" x1="138.8" y1="108.6" x2="136" y2="108.6"/>
			<line id="XMLID_712_" class="st9" x1="154" y1="170.1" x2="109.5" y2="170.1"/>
		</g>
		<line id="XMLID_519_" class="st11" x1="67.1" y1="91" x2="116" y2="91"/>
		<line id="XMLID_518_" class="st11" x1="121.1" y1="91" x2="118.7" y2="91"/>
		<line id="XMLID_517_" class="st11" x1="170.5" y1="112.5" x2="165.5" y2="112.5"/>
		<line id="XMLID_4_" class="st11" x1="173.7" y1="112.5" x2="211.4" y2="112.5"/>
		<g id="XMLID_510_">
			<line id="XMLID_513_" class="st11" x1="125.1" y1="91" x2="129.4" y2="91"/>
			<line id="XMLID_511_" class="st11" x1="127.2" y1="93.2" x2="127.2" y2="88.9"/>
		</g>
		<g id="XMLID_506_">
			<line id="XMLID_509_" class="st11" x1="91.7" y1="107.4" x2="95.9" y2="107.4"/>
			<line id="XMLID_507_" class="st11" x1="93.8" y1="109.6" x2="93.8" y2="105.3"/>
		</g>
		<g id="XMLID_500_">
			<line id="XMLID_505_" class="st11" x1="67.6" y1="128.3" x2="71.9" y2="128.3"/>
			<line id="XMLID_501_" class="st11" x1="69.8" y1="130.4" x2="69.8" y2="126.1"/>
		</g>
		<g id="XMLID_20_">
			<line id="XMLID_25_" class="st11" x1="200.2" y1="130.4" x2="204.5" y2="130.4"/>
			<line id="XMLID_24_" class="st11" x1="202.3" y1="132.5" x2="202.3" y2="128.3"/>
		</g>
		<g id="XMLID_494_">
			<line id="XMLID_496_" class="st11" x1="41.1" y1="127" x2="44.1" y2="124"/>
			<line id="XMLID_495_" class="st11" x1="44.1" y1="127" x2="41.1" y2="124"/>
		</g>
		<g id="XMLID_486_">
			<line id="XMLID_492_" class="st11" x1="159.6" y1="114.1" x2="162.6" y2="111"/>
			<line id="XMLID_491_" class="st11" x1="162.6" y1="114.1" x2="159.6" y2="111"/>
		</g>
		<line id="XMLID_484_" class="st11" x1="123.2" y1="98" x2="185.4" y2="98"/>
		<line id="XMLID_482_" class="st11" x1="50.4" y1="107.4" x2="80.4" y2="107.4"/>
		<line id="XMLID_480_" class="st11" x1="88" y1="107.4" x2="83.2" y2="107.4"/>
		<polygon id="XMLID_467_" class="st12" points="70.9,141.2 72.8,140.1 74.7,141.2 74.7,143.4 72.8,144.5 70.9,143.4 		"/>
		<polygon id="XMLID_466_" class="st12" points="215.9,132.9 217.8,131.8 219.7,132.9 219.7,135.1 217.8,136.2 215.9,135.1 		"/>
		<polygon id="XMLID_27_" class="st12" points="197.8,98.6 199.7,97.5 201.6,98.6 201.6,100.8 199.7,101.8 197.8,100.8 		"/>
		<polygon id="XMLID_465_" class="st12" points="157.1,81.7 159.6,80.2 162.2,81.7 162.2,84.7 159.6,86.1 157.1,84.7 		"/>
		<g id="XMLID_230_">
			<circle id="XMLID_281_" class="st6" cx="131" cy="140.1" r="9"/>
			<path id="XMLID_280_" class="st13" d="M129.6,132.9c5,0,9,4,9,9c0,1.6-0.4,3.1-1.2,4.4c1.6-1.6,2.6-3.8,2.6-6.3c0-5-4-9-9-9
				c-3.4,0-6.3,1.8-7.8,4.6C124.8,134,127,132.9,129.6,132.9z"/>
			<circle id="XMLID_279_" class="st9" cx="131" cy="140.1" r="9"/>
			<polyline id="XMLID_278_" class="st11" points="126.9,140.2 129.8,143 135.6,137.3 			"/>
		</g>
		<g id="XMLID_455_" class="st14">
			<path id="XMLID_524_" class="st15" d="M141.4,149.2h9v-0.8h5.3v-26.3h-2.1c-0.7,0-1.2,0.5-1.2,1.2v2.1h-2v-0.2h-9
				c-0.6,0-1,0.5-1,1v22C140.4,148.8,140.8,149.2,141.4,149.2z"/>
			<path id="XMLID_526_" class="st15" d="M155.7,176.8v-24.3h-6.1v-0.7h-7.8c-1.7,0-3.1,1.4-3.1,3.1v23.4c0,1.7,1.4,3.1,3.1,3.1h9.4
				C153.7,181.3,155.7,179.2,155.7,176.8z"/>
		</g>
		<g id="XMLID_2_">
			<path id="XMLID_546_" class="st6" d="M186.4,153.2h-8.5h-26.3h-7.8c-1.3,0-2.4,1.1-2.4,2.4v23.4c0,1.3,1.1,2.4,2.4,2.4h42.5
				c1.3,0,2.4-1.1,2.4-2.4v-23.4C188.7,154.2,187.7,153.2,186.4,153.2z"/>
			<path id="XMLID_548_" class="st16" d="M186.4,175.9h-42.5c-1.3,0-2.4-1.1-2.4-2.4v5.3c0,1.3,1.1,2.4,2.4,2.4h42.5
				c1.3,0,2.4-1.1,2.4-2.4v-5.3C188.7,174.9,187.7,175.9,186.4,175.9z"/>
			<path id="XMLID_543_" class="st6" d="M181.4,126.6v22.1c0,0.2-0.2,0.4-0.4,0.4h-5.4v4.1v5.5c0,0.4-0.5,0.6-0.8,0.3l-10.2-9.9h-21
				c-0.2,0-0.4-0.2-0.4-0.4v-22.1c0-0.2,0.2-0.4,0.4-0.4H181C181.2,126.1,181.4,126.3,181.4,126.6z"/>
			<path id="XMLID_355_" class="st9" d="M177.9,153.2h8.5c1.3,0,2.4,1.1,2.4,2.4v23.4c0,1.3-1.1,2.4-2.4,2.4h-42.5
				c-1.3,0-2.4-1.1-2.4-2.4v-23.4c0-1.3,1.1-2.4,2.4-2.4h7.8"/>
			<line id="XMLID_354_" class="st9" x1="148.6" y1="181.3" x2="148.6" y2="153.2"/>
			<line id="XMLID_353_" class="st9" x1="145.2" y1="162.7" x2="145.2" y2="171.7"/>
			<line id="XMLID_352_" class="st9" x1="181.7" y1="181.3" x2="181.7" y2="153.2"/>
			<path id="XMLID_347_" class="st9" d="M152.4,126.7h-9c-0.2,0-0.3,0.1-0.3,0.3v22c0,0.2,0.1,0.3,0.3,0.3h9"/>
			<path id="XMLID_302_" class="st9" d="M169.8,154.3l4.9,4.8c0.3,0.3,0.7,0.1,0.7-0.3v-5.1v-3.8"/>
			<line id="XMLID_274_" class="st9" x1="154.4" y1="165.9" x2="151.3" y2="165.9"/>
			<line id="XMLID_268_" class="st9" x1="157.4" y1="165.9" x2="160.5" y2="165.9"/>
			<line id="XMLID_267_" class="st9" x1="163.4" y1="165.9" x2="166.6" y2="165.9"/>
			<line id="XMLID_252_" class="st9" x1="169.5" y1="165.9" x2="172.6" y2="165.9"/>
			<line id="XMLID_251_" class="st9" x1="175.5" y1="165.9" x2="178.7" y2="165.9"/>
			<line id="XMLID_250_" class="st9" x1="151.3" y1="171.2" x2="154.4" y2="171.2"/>
			<line id="XMLID_249_" class="st9" x1="157.4" y1="171.2" x2="160.5" y2="171.2"/>
			<line id="XMLID_247_" class="st9" x1="163.4" y1="171.2" x2="166.6" y2="171.2"/>
			<line id="XMLID_246_" class="st9" x1="169.5" y1="171.2" x2="172.6" y2="171.2"/>
			<line id="XMLID_195_" class="st9" x1="175.5" y1="171.2" x2="178.7" y2="171.2"/>
			<line id="XMLID_168_" class="st9" x1="151.3" y1="176.6" x2="154.4" y2="176.6"/>
			<line id="XMLID_56_" class="st9" x1="172.6" y1="176.6" x2="157.8" y2="176.6"/>
			<line id="XMLID_54_" class="st9" x1="175.5" y1="176.6" x2="178.7" y2="176.6"/>
			<path id="XMLID_357_" class="st5" d="M155.1,124v23.5c0,0.2,0.2,0.4,0.4,0.4h5.4v4.1v5.5c0,0.4,0.5,0.6,0.8,0.3l10.2-9.9h15.6
				c0.2,0,0.4-0.2,0.4-0.4V124c0-0.2-0.2-0.4-0.4-0.4h-32.1C155.3,123.6,155.1,123.8,155.1,124z"/>
			<path id="XMLID_549_" class="st16" d="M187.7,123.6h-32.1c-0.2,0-0.4,0.2-0.4,0.4v3.6h28.5c0.2,0,0.4,0.2,0.4,0.4v19.9h3.6
				c0.2,0,0.4-0.2,0.4-0.4V124C188.1,123.8,187.9,123.6,187.7,123.6z"/>
			<path id="XMLID_282_" class="st9" d="M155.1,124v23.5c0,0.2,0.2,0.4,0.4,0.4h5.4v4.1v5.5c0,0.4,0.5,0.6,0.8,0.3l10.2-9.9h15.6
				c0.2,0,0.4-0.2,0.4-0.4V124c0-0.2-0.2-0.4-0.4-0.4h-32.1C155.3,123.6,155.1,123.8,155.1,124z"/>
			<line id="XMLID_277_" class="st17" x1="182.9" y1="129.6" x2="160.3" y2="129.6"/>
			<line id="XMLID_276_" class="st17" x1="182.9" y1="136.1" x2="160.3" y2="136.1"/>
			<line id="XMLID_275_" class="st17" x1="160.3" y1="142.6" x2="172.7" y2="142.6"/>
		</g>
		<g id="XMLID_639_">
			<path id="XMLID_413_" class="st5" d="M216.3,176.9h-21.7h-2.9c0,2.4,1.9,4.3,4.3,4.3h18.8c2.4,0,4.3-1.9,4.3-4.3H216.3z"/>
			<path id="XMLID_656_" class="st5" d="M213.9,178.7h-17c-0.1,0-0.1,0-0.1-0.1l-3-17c0-0.1,0-0.1,0.1-0.1h23.1
				c0.1,0,0.1,0.1,0.1,0.1l-3,17C214,178.6,214,178.7,213.9,178.7z"/>
			<path id="XMLID_389_" class="st12" d="M216.9,161.5h-3.6l-2.5,14c0,0.1-0.1,0.1-0.1,0.1h-14.5l0.5,3.1c0,0.1,0.1,0.1,0.1,0.1h17
				c0.1,0,0.1,0,0.1-0.1l3-17C217.1,161.5,217,161.5,216.9,161.5z"/>
			<path id="XMLID_375_" class="st9" d="M213.9,178.7h-17c-0.1,0-0.1,0-0.1-0.1l-3-17c0-0.1,0-0.1,0.1-0.1h23.1
				c0.1,0,0.1,0.1,0.1,0.1l-3,17C214,178.6,214,178.7,213.9,178.7z"/>
			<path id="XMLID_374_" class="st9" d="M194.5,176.9h-2.9l0,0c0,2.4,1.9,4.3,4.3,4.3h18.8c2.4,0,4.3-1.9,4.3-4.3l0,0h-2.9"/>
			<path id="XMLID_468_" class="st9" d="M215.3,172.9h3c1.9,0,3.5-1.6,3.5-3.5l0,0c0-1.9-1.6-3.5-3.5-3.5h-1.6"/>
			<path id="XMLID_472_" class="st9" d="M207.8,159.4c0-1.5-1.2-2.7-2.7-2.7c-1.5,0-2.7,1.2-2.7,2.7"/>
			<path id="XMLID_469_" class="st9" d="M209.5,155c-1.1-1.1-2.7-1.8-4.4-1.8c-1.7,0-3.3,0.7-4.4,1.8"/>
			<path id="XMLID_470_" class="st9" d="M212.2,152.4c-1.8-1.8-4.3-2.9-7-2.9s-5.2,1.1-7,2.9"/>
			<path id="XMLID_373_" class="st9" d="M196.3,148.7c-0.3,0.3-0.7,0.6-1,0.9"/>
			<path id="XMLID_365_" class="st9" d="M199.7,146.7c-0.4,0.2-0.8,0.4-1.2,0.6"/>
			<path id="XMLID_364_" class="st9" d="M203.7,145.6c-0.5,0-0.9,0.1-1.4,0.2"/>
			<path id="XMLID_657_" class="st9" d="M207.9,145.9c-0.5-0.1-0.9-0.2-1.4-0.2"/>
			<path id="XMLID_363_" class="st9" d="M211.7,147.3c-0.4-0.2-0.8-0.4-1.2-0.6"/>
			<path id="XMLID_362_" class="st9" d="M214.9,149.6c-0.3-0.3-0.6-0.6-1-0.9"/>
		</g>
		<g id="XMLID_453_">
			<circle id="XMLID_544_" class="st6" cx="46.6" cy="166.2" r="9.1"/>
			<circle id="XMLID_545_" class="st6" cx="67.7" cy="162.3" r="8.7"/>
			<path id="XMLID_497_" class="st16" d="M67.7,153.7c-2.8,0-5.3,1.4-6.9,3.4c1.5-1.1,3.3-1.8,5.2-1.8c4.8,0,8.7,3.9,8.7,8.7
				c0,2-0.7,3.8-1.8,5.2c2.1-1.6,3.4-4.1,3.4-6.9C76.4,157.5,72.5,153.7,67.7,153.7z"/>
			<circle id="XMLID_490_" class="st6" cx="57.1" cy="172.9" r="8.4"/>
			<path id="XMLID_489_" class="st13" d="M57.1,164.5c-2.7,0-5.2,1.3-6.7,3.3c1.4-1.1,3.1-1.7,5-1.7c4.6,0,8.4,3.7,8.4,8.4
				c0,1.9-0.6,3.6-1.7,5c2-1.5,3.3-4,3.3-6.7C65.5,168.3,61.7,164.5,57.1,164.5z"/>
			<g id="XMLID_460_">
				<g id="XMLID_2368_">
					<g id="XMLID_2375_">
						<path id="XMLID_488_" class="st9" d="M59,162.3c0-4.8,3.9-8.7,8.7-8.7c4.8,0,8.7,3.9,8.7,8.7c0,4.8-3.9,8.7-8.7,8.7"/>
					</g>
					<line id="XMLID_487_" class="st9" x1="63.7" y1="165.1" x2="71.9" y2="165.1"/>
					<path id="XMLID_485_" class="st9" d="M66.3,165.1v2.2c0,0.8,0.7,1.5,1.5,1.5l0,0c0.8,0,1.5-0.7,1.5-1.5v-2.2"/>
					<line id="XMLID_483_" class="st9" x1="65.4" y1="160.8" x2="64" y2="160.8"/>
					<line id="XMLID_481_" class="st9" x1="71.2" y1="160.8" x2="69.8" y2="160.8"/>
				</g>
				<g id="XMLID_2361_">
					<g id="XMLID_2367_">
						<path id="XMLID_479_" class="st9" d="M55.2,162.4c-1.5-3.2-4.7-5.4-8.4-5.4c-5.1,0-9.3,4.1-9.3,9.3c0,5.1,4.1,9.3,9.3,9.3"/>
					</g>
					<g id="XMLID_2366_">
						<path id="XMLID_478_" class="st9" d="M47.5,169l-4.6,0.4c0,1.9,1.6,3.5,3.5,3.5"/>
					</g>
					<g id="XMLID_2363_">
						<path id="XMLID_1189_" class="st9" d="M45.1,163.8c0-0.8-0.6-1.4-1.4-1.4c-0.4,0-0.8,0.2-1,0.4c-0.3-0.3-0.6-0.4-1-0.4
							c-0.8,0-1.4,0.6-1.4,1.4c0,0.4,0.2,0.7,0.4,1l2.1,2l2.1-2.1c0,0,0.1-0.1,0.1-0.1C45,164.4,45.1,164.1,45.1,163.8z"/>
					</g>
					<g id="XMLID_2362_">
						<path id="XMLID_476_" class="st9" d="M52.9,163.8c0-0.8-0.6-1.4-1.4-1.4c-0.4,0-0.8,0.2-1,0.4c-0.3-0.3-0.6-0.4-1-0.4
							c-0.8,0-1.4,0.6-1.4,1.4c0,0.4,0.2,0.7,0.4,1l2.1,2l2.1-2.1c0,0,0.1-0.1,0.1-0.1C52.8,164.4,52.9,164.1,52.9,163.8z"/>
					</g>
				</g>
				<g id="XMLID_2376_">
					<g id="XMLID_2382_">
						<circle id="XMLID_1199_" class="st9" cx="57.1" cy="172.9" r="8.4"/>
					</g>
					<g id="XMLID_463_">
						<path id="XMLID_464_" class="st9" d="M56,170.8c-0.4-0.4-0.9-0.6-1.5-0.6c-0.6,0-1.1,0.2-1.5,0.6"/>
					</g>
					<g id="XMLID_461_">
						<path id="XMLID_462_" class="st9" d="M61.4,170.8c-0.4-0.4-0.9-0.6-1.5-0.6c-0.6,0-1.1,0.2-1.5,0.6"/>
					</g>
					<g id="XMLID_2379_">
						<path id="XMLID_1198_" class="st9" d="M53.3,174.8c0,2.1,1.7,3.7,3.7,3.7c2.1,0,3.7-1.7,3.7-3.7H53.3z"/>
					</g>
				</g>
			</g>
			<line id="XMLID_459_" class="st9" x1="56.5" y1="152.1" x2="56.5" y2="147.8"/>
			<line id="XMLID_458_" class="st9" x1="62" y1="148.8" x2="60.5" y2="152.8"/>
			<line id="XMLID_457_" class="st9" x1="46.3" y1="151.6" x2="49" y2="154.8"/>
			<line id="XMLID_456_" class="st9" x1="52.5" y1="152.8" x2="51.1" y2="148.8"/>
		</g>
		<g id="XMLID_122_">
			<line id="XMLID_125_" class="st11" x1="38.9" y1="181.3" x2="223" y2="181.3"/>
			<line id="XMLID_124_" class="st11" x1="225.8" y1="181.3" x2="228.5" y2="181.3"/>
			<line id="XMLID_123_" class="st11" x1="36.2" y1="181.3" x2="31.5" y2="181.3"/>
		</g>
	</g>
</g>
<g id="Find_The_right_person">
</g>
<g id="Event_Service">
</g>
<g id="Social_Media">
</g>
</svg>
