<?xml version="1.0" encoding="utf-8"?>
<!-- Generator: Adobe Illustrator 24.1.0, SVG Export Plug-In . SVG Version: 6.00 Build 0)  -->
<svg version="1.1" id="Lag_1" xmlns="http://www.w3.org/2000/svg" xmlns:xlink="http://www.w3.org/1999/xlink" x="0px" y="0px"
	 viewBox="0 0 256 145.5" style="enable-background:new 0 0 256 145.5;" xml:space="preserve">
<style type="text/css">
	.st0{opacity:0.2;fill:#57F7FF;enable-background:new    ;}
	.st1{fill:#3D46A2;}
	.st2{fill:#FFFFFF;}
	.st3{opacity:0.3;fill:#43418A;enable-background:new    ;}
	.st4{fill:#BCFCFF;}
	.st5{fill:none;stroke:#43418A;stroke-width:0.75;stroke-miterlimit:10;}
	.st6{opacity:0.3;fill:#9AFAFF;enable-background:new    ;}
	.st7{fill:none;stroke:#43418A;stroke-width:0.75;stroke-linecap:round;stroke-miterlimit:10;}
	.st8{fill:#43418A;}
	.st9{fill:#57F7FF;}
	.st10{opacity:0.3;}
	.st11{fill:#242277;}
	.st12{fill:#6E74B9;}
	.st13{fill:none;stroke:#FFFFFF;stroke-width:0.75;stroke-miterlimit:10;}
</style>
<g id="Communication">
	<g id="XMLID_141_">
		<g id="XMLID_721_">
			<path id="XMLID_737_" class="st0" d="M216,125.2c0-12.4-2.6-24.1-7.4-34.7c1.7-3.5,2.7-7.5,2.7-11.7c0-14.9-12.1-26.9-26.9-26.9
				c-2.8,0-5.5,0.4-8,1.2c-13.2-8.4-29-13.3-45.8-13.3c-2.1,0-4.2,0.1-6.2,0.2c-3.7-2.8-8.3-4.4-13.2-4.4c-9.4,0-17.4,5.9-20.6,14.1
				c-6.5,3.4-12.5,7.7-17.8,12.6c-1.7-0.4-3.5-0.6-5.4-0.6C53.9,61.7,43,72.6,43,86.1c0,5.9,2.1,11.3,5.5,15.5
				c-2.2,7.5-3.3,15.4-3.3,23.6H216z"/>
			<path id="XMLID_736_" class="st0" d="M192.6,125.2c0-34.3-27.8-62.1-62.1-62.1s-62.1,27.8-62.1,62.1H192.6z"/>
			<circle id="XMLID_735_" class="st0" cx="219.8" cy="92.6" r="4.9"/>
			<circle id="XMLID_734_" class="st0" cx="149.2" cy="31.9" r="7.5"/>
			<circle id="XMLID_733_" class="st0" cx="77.6" cy="50.2" r="3.2"/>
			<circle id="XMLID_732_" class="st0" cx="178.7" cy="44.4" r="3.2"/>
			<circle id="XMLID_731_" class="st0" cx="107.9" cy="22.6" r="3.2"/>
			<circle id="XMLID_730_" class="st0" cx="218" cy="104.4" r="1.3"/>
			<circle id="XMLID_729_" class="st0" cx="177.2" cy="21.7" r="1"/>
			<circle id="XMLID_728_" class="st0" cx="78.9" cy="26.6" r="1.3"/>
			<circle id="XMLID_727_" class="st0" cx="24.9" cy="55.3" r="1.7"/>
			<circle id="XMLID_726_" class="st0" cx="231.1" cy="67.9" r="1.7"/>
			<circle id="XMLID_725_" class="st0" cx="52.4" cy="48.4" r="7.3"/>
			<circle id="XMLID_724_" class="st0" cx="31" cy="101.4" r="1.7"/>
			<circle id="XMLID_723_" class="st0" cx="214.9" cy="50.2" r="7"/>
			<circle id="XMLID_722_" class="st0" cx="31" cy="82.1" r="6.9"/>
		</g>
		<g id="XMLID_558_">
			<path id="XMLID_451_" class="st1" d="M109.6,98.2H96.7H83.3H67.6c-1.3,0-2.3,1-2.3,2.3v23.1c0,1.3,1,2.3,2.3,2.3h42
				c1.3,0,2.3-1,2.3-2.3v-23.1C112,99.3,110.9,98.2,109.6,98.2z"/>
			<polygon id="XMLID_42_" class="st2" points="105,98.2 94.3,98.2 84.9,98.2 72.3,98.2 72.3,126 72.3,126 105,126 105,126 			"/>
			<path id="XMLID_450_" class="st3" d="M109.6,122.5h-42c-1.3,0-2.3-1-2.3-2.3v3.5c0,1.3,1,2.3,2.3,2.3h42c1.3,0,2.3-1,2.3-2.3
				v-3.5C112,121.4,110.9,122.5,109.6,122.5z"/>
			<path id="XMLID_591_" class="st2" d="M84.2,75.6v16c0,0.2,0.1,0.3,0.3,0.3h3.7v2.8v3.7c0,0.3,0.4,0.4,0.5,0.2l7-6.7h10.7
				c0.2,0,0.3-0.1,0.3-0.3v-16c0-0.2-0.1-0.3-0.3-0.3H84.5C84.3,75.3,84.2,75.4,84.2,75.6z"/>
			<path id="XMLID_595_" class="st4" d="M106.4,75.3H84.5c-0.2,0-0.3,0.1-0.3,0.3v3.2h18.7c0.2,0,0.3,0.1,0.3,0.3v12.8h3.2
				c0.2,0,0.3-0.1,0.3-0.3v-16C106.7,75.4,106.6,75.3,106.4,75.3z"/>
			<path id="XMLID_449_" class="st5" d="M84.5,75.3h21.9c0.2,0,0.3,0.1,0.3,0.3v16c0,0.2-0.1,0.3-0.3,0.3H95.7l-7,6.7
				c-0.2,0.2-0.5,0.1-0.5-0.2v-3.7v-2.8h-3.7c-0.2,0-0.3-0.1-0.3-0.3v-16C84.2,75.4,84.3,75.3,84.5,75.3z"/>
			<g id="XMLID_438_">
				<path id="XMLID_447_" class="st5" d="M86,112.9v3.2l-5.7,1.9c-0.4,0.1-0.7,0.5-0.7,1v3.5"/>
				<path id="XMLID_446_" class="st5" d="M97.4,122.5V119c0-0.4-0.3-0.8-0.7-1l-5.7-1.9v-3.2"/>
				<path id="XMLID_445_" class="st5" d="M92.8,105.7c0-2.4-1.9-4.3-4.3-4.3s-4.3,1.9-4.3,4.3l0.4,5.2c0.1,0.7,0.5,1.3,1.1,1.6
					l2.1,1.4h1.4l2.2-1.4c0.6-0.3,1-0.9,1.1-1.6L92.8,105.7z"/>
				<polyline id="XMLID_443_" class="st5" points="86,116.1 87.6,118 89.5,118 91.1,116.1 				"/>
			</g>
			<path id="XMLID_437_" class="st5" d="M83.2,98.2H67.5c-1.3,0-2.3,1-2.3,2.3v23.1c0,1.3,1,2.3,2.3,2.3h42c1.3,0,2.3-1,2.3-2.3
				v-23.1c0-1.3-1-2.3-2.3-2.3H96.6"/>
			<line id="XMLID_436_" class="st5" x1="72.3" y1="98.2" x2="72.3" y2="126"/>
			<line id="XMLID_435_" class="st5" x1="68.9" y1="116.5" x2="68.9" y2="107.6"/>
			<line id="XMLID_434_" class="st5" x1="104.9" y1="126" x2="104.9" y2="98.2"/>
			<line id="XMLID_433_" class="st5" x1="88.1" y1="83.3" x2="90.8" y2="83.3"/>
			<line id="XMLID_431_" class="st5" x1="94.1" y1="83.3" x2="96.8" y2="83.3"/>
			<line id="XMLID_422_" class="st5" x1="100.1" y1="83.3" x2="102.9" y2="83.3"/>
		</g>
		<g id="XMLID_157_">
			<path id="XMLID_742_" class="st2" d="M154,51.1c0-2.1-1.7-3.8-3.8-3.8h-37c-2.1,0-3.8,1.7-3.8,3.8v71.1c0,2.1,1.7,3.8,3.8,3.8h37
				c2.1,0,3.8-1.7,3.8-3.8V51.1z"/>
			<rect id="XMLID_741_" x="109.5" y="59.4" class="st1" width="44.5" height="55.4"/>
			<path id="XMLID_740_" class="st3" d="M150.2,47.4H145c2.1,0,3.8,1.7,3.8,3.8v71.1c0,2.1-1.7,3.8-3.8,3.8h5.2
				c2.1,0,3.8-1.7,3.8-3.8V51.2C154,49.1,152.3,47.4,150.2,47.4z"/>
			<path id="XMLID_739_" class="st6" d="M113.2,47.4h5.2c-2.1,0-3.8,1.7-3.8,3.8v71.1c0,2.1,1.7,3.8,3.8,3.8h-5.2
				c-2.1,0-3.8-1.7-3.8-3.8V51.2C109.5,49.1,111.1,47.4,113.2,47.4z"/>
			<path id="XMLID_190_" class="st5" d="M154,122.2c0,2.1-1.7,3.8-3.8,3.8h-37c-2.1,0-3.8-1.7-3.8-3.8V51.1c0-2.1,1.7-3.8,3.8-3.8
				h37c2.1,0,3.8,1.7,3.8,3.8V122.2z"/>
			<line id="XMLID_187_" class="st5" x1="109.5" y1="58.7" x2="154" y2="58.7"/>
			<line id="XMLID_713_" class="st5" x1="134.8" y1="53.3" x2="124.6" y2="53.3"/>
			<line id="XMLID_186_" class="st5" x1="138.8" y1="53.3" x2="136" y2="53.3"/>
			<line id="XMLID_712_" class="st5" x1="154" y1="114.8" x2="109.5" y2="114.8"/>
		</g>
		<line id="XMLID_519_" class="st7" x1="67.1" y1="35.7" x2="116" y2="35.7"/>
		<line id="XMLID_518_" class="st7" x1="121.1" y1="35.7" x2="118.7" y2="35.7"/>
		<line id="XMLID_517_" class="st7" x1="170.5" y1="57.2" x2="165.5" y2="57.2"/>
		<line id="XMLID_4_" class="st7" x1="173.7" y1="57.2" x2="211.4" y2="57.2"/>
		<g id="XMLID_510_">
			<line id="XMLID_513_" class="st7" x1="125.1" y1="35.7" x2="129.4" y2="35.7"/>
			<line id="XMLID_511_" class="st7" x1="127.2" y1="37.9" x2="127.2" y2="33.6"/>
		</g>
		<g id="XMLID_506_">
			<line id="XMLID_509_" class="st7" x1="91.7" y1="52.1" x2="95.9" y2="52.1"/>
			<line id="XMLID_507_" class="st7" x1="93.8" y1="54.3" x2="93.8" y2="50"/>
		</g>
		<g id="XMLID_500_">
			<line id="XMLID_505_" class="st7" x1="67.6" y1="73" x2="71.9" y2="73"/>
			<line id="XMLID_501_" class="st7" x1="69.8" y1="75.1" x2="69.8" y2="70.8"/>
		</g>
		<g id="XMLID_20_">
			<line id="XMLID_25_" class="st7" x1="200.2" y1="75.1" x2="204.5" y2="75.1"/>
			<line id="XMLID_24_" class="st7" x1="202.3" y1="77.2" x2="202.3" y2="73"/>
		</g>
		<g id="XMLID_494_">
			<line id="XMLID_496_" class="st7" x1="41.1" y1="71.7" x2="44.1" y2="68.7"/>
			<line id="XMLID_495_" class="st7" x1="44.1" y1="71.7" x2="41.1" y2="68.7"/>
		</g>
		<g id="XMLID_486_">
			<line id="XMLID_492_" class="st7" x1="159.6" y1="58.8" x2="162.6" y2="55.7"/>
			<line id="XMLID_491_" class="st7" x1="162.6" y1="58.8" x2="159.6" y2="55.7"/>
		</g>
		<line id="XMLID_484_" class="st7" x1="123.2" y1="42.7" x2="185.4" y2="42.7"/>
		<line id="XMLID_482_" class="st7" x1="50.4" y1="52.1" x2="80.4" y2="52.1"/>
		<line id="XMLID_480_" class="st7" x1="88" y1="52.1" x2="83.2" y2="52.1"/>
		<polygon id="XMLID_467_" class="st8" points="70.9,85.9 72.8,84.8 74.7,85.9 74.7,88.1 72.8,89.2 70.9,88.1 		"/>
		<polygon id="XMLID_466_" class="st8" points="215.9,77.6 217.8,76.5 219.7,77.6 219.7,79.8 217.8,80.9 215.9,79.8 		"/>
		<polygon id="XMLID_27_" class="st8" points="197.8,43.3 199.7,42.2 201.6,43.3 201.6,45.5 199.7,46.5 197.8,45.5 		"/>
		<polygon id="XMLID_465_" class="st8" points="157.1,26.4 159.6,24.9 162.2,26.4 162.2,29.4 159.6,30.8 157.1,29.4 		"/>
		<g id="XMLID_230_">
			<circle id="XMLID_281_" class="st2" cx="131" cy="84.8" r="9"/>
			<path id="XMLID_280_" class="st9" d="M129.6,77.6c5,0,9,4,9,9c0,1.6-0.4,3.1-1.2,4.4c1.6-1.6,2.6-3.8,2.6-6.3c0-5-4-9-9-9
				c-3.4,0-6.3,1.8-7.8,4.6C124.8,78.7,127,77.6,129.6,77.6z"/>
			<circle id="XMLID_279_" class="st5" cx="131" cy="84.8" r="9"/>
			<polyline id="XMLID_278_" class="st7" points="126.9,84.9 129.8,87.7 135.6,82 			"/>
		</g>
		<g id="XMLID_455_" class="st10">
			<path id="XMLID_524_" class="st11" d="M141.4,93.9h9v-0.8h5.3V66.8h-2.1c-0.7,0-1.2,0.5-1.2,1.2v2.1h-2v-0.2h-9c-0.6,0-1,0.5-1,1
				v22C140.4,93.5,140.8,93.9,141.4,93.9z"/>
			<path id="XMLID_526_" class="st11" d="M155.7,121.5V97.2h-6.1v-0.7h-7.8c-1.7,0-3.1,1.4-3.1,3.1V123c0,1.7,1.4,3.1,3.1,3.1h9.4
				C153.7,126,155.7,123.9,155.7,121.5z"/>
		</g>
		<g id="XMLID_2_">
			<path id="XMLID_546_" class="st2" d="M186.4,97.9h-8.5h-26.3h-7.8c-1.3,0-2.4,1.1-2.4,2.4v23.4c0,1.3,1.1,2.4,2.4,2.4h42.5
				c1.3,0,2.4-1.1,2.4-2.4v-23.4C188.7,98.9,187.7,97.9,186.4,97.9z"/>
			<path id="XMLID_548_" class="st12" d="M186.4,120.6h-42.5c-1.3,0-2.4-1.1-2.4-2.4v5.3c0,1.3,1.1,2.4,2.4,2.4h42.5
				c1.3,0,2.4-1.1,2.4-2.4v-5.3C188.7,119.6,187.7,120.6,186.4,120.6z"/>
			<path id="XMLID_543_" class="st2" d="M181.4,71.3v22.1c0,0.2-0.2,0.4-0.4,0.4h-5.4v4.1v5.5c0,0.4-0.5,0.6-0.8,0.3l-10.2-9.9h-21
				c-0.2,0-0.4-0.2-0.4-0.4V71.3c0-0.2,0.2-0.4,0.4-0.4H181C181.2,70.8,181.4,71,181.4,71.3z"/>
			<path id="XMLID_355_" class="st5" d="M177.9,97.9h8.5c1.3,0,2.4,1.1,2.4,2.4v23.4c0,1.3-1.1,2.4-2.4,2.4h-42.5
				c-1.3,0-2.4-1.1-2.4-2.4v-23.4c0-1.3,1.1-2.4,2.4-2.4h7.8"/>
			<line id="XMLID_354_" class="st5" x1="148.6" y1="126" x2="148.6" y2="97.9"/>
			<line id="XMLID_353_" class="st5" x1="145.2" y1="107.4" x2="145.2" y2="116.4"/>
			<line id="XMLID_352_" class="st5" x1="181.7" y1="126" x2="181.7" y2="97.9"/>
			<path id="XMLID_347_" class="st5" d="M152.4,71.4h-9c-0.2,0-0.3,0.1-0.3,0.3v22c0,0.2,0.1,0.3,0.3,0.3h9"/>
			<path id="XMLID_302_" class="st5" d="M169.8,99l4.9,4.8c0.3,0.3,0.7,0.1,0.7-0.3v-5.1v-3.8"/>
			<line id="XMLID_274_" class="st5" x1="154.4" y1="110.6" x2="151.3" y2="110.6"/>
			<line id="XMLID_268_" class="st5" x1="157.4" y1="110.6" x2="160.5" y2="110.6"/>
			<line id="XMLID_267_" class="st5" x1="163.4" y1="110.6" x2="166.6" y2="110.6"/>
			<line id="XMLID_252_" class="st5" x1="169.5" y1="110.6" x2="172.6" y2="110.6"/>
			<line id="XMLID_251_" class="st5" x1="175.5" y1="110.6" x2="178.7" y2="110.6"/>
			<line id="XMLID_250_" class="st5" x1="151.3" y1="115.9" x2="154.4" y2="115.9"/>
			<line id="XMLID_249_" class="st5" x1="157.4" y1="115.9" x2="160.5" y2="115.9"/>
			<line id="XMLID_247_" class="st5" x1="163.4" y1="115.9" x2="166.6" y2="115.9"/>
			<line id="XMLID_246_" class="st5" x1="169.5" y1="115.9" x2="172.6" y2="115.9"/>
			<line id="XMLID_195_" class="st5" x1="175.5" y1="115.9" x2="178.7" y2="115.9"/>
			<line id="XMLID_168_" class="st5" x1="151.3" y1="121.3" x2="154.4" y2="121.3"/>
			<line id="XMLID_56_" class="st5" x1="172.6" y1="121.3" x2="157.8" y2="121.3"/>
			<line id="XMLID_54_" class="st5" x1="175.5" y1="121.3" x2="178.7" y2="121.3"/>
			<path id="XMLID_357_" class="st1" d="M155.1,68.7v23.5c0,0.2,0.2,0.4,0.4,0.4h5.4v4.1v5.5c0,0.4,0.5,0.6,0.8,0.3l10.2-9.9h15.6
				c0.2,0,0.4-0.2,0.4-0.4V68.7c0-0.2-0.2-0.4-0.4-0.4h-32.1C155.3,68.3,155.1,68.5,155.1,68.7z"/>
			<path id="XMLID_549_" class="st12" d="M187.7,68.3h-32.1c-0.2,0-0.4,0.2-0.4,0.4v3.6h28.5c0.2,0,0.4,0.2,0.4,0.4v19.9h3.6
				c0.2,0,0.4-0.2,0.4-0.4V68.7C188.1,68.5,187.9,68.3,187.7,68.3z"/>
			<path id="XMLID_282_" class="st5" d="M155.1,68.7v23.5c0,0.2,0.2,0.4,0.4,0.4h5.4v4.1v5.5c0,0.4,0.5,0.6,0.8,0.3l10.2-9.9h15.6
				c0.2,0,0.4-0.2,0.4-0.4V68.7c0-0.2-0.2-0.4-0.4-0.4h-32.1C155.3,68.3,155.1,68.5,155.1,68.7z"/>
			<line id="XMLID_277_" class="st13" x1="182.9" y1="74.3" x2="160.3" y2="74.3"/>
			<line id="XMLID_276_" class="st13" x1="182.9" y1="80.8" x2="160.3" y2="80.8"/>
			<line id="XMLID_275_" class="st13" x1="160.3" y1="87.3" x2="172.7" y2="87.3"/>
		</g>
		<g id="XMLID_639_">
			<path id="XMLID_413_" class="st1" d="M216.3,121.6h-21.7h-2.9c0,2.4,1.9,4.3,4.3,4.3h18.8c2.4,0,4.3-1.9,4.3-4.3H216.3z"/>
			<path id="XMLID_656_" class="st1" d="M213.9,123.4h-17c-0.1,0-0.1,0-0.1-0.1l-3-17c0-0.1,0-0.1,0.1-0.1H217
				c0.1,0,0.1,0.1,0.1,0.1l-3,17C214,123.3,214,123.4,213.9,123.4z"/>
			<path id="XMLID_389_" class="st8" d="M216.9,106.2h-3.6l-2.5,14c0,0.1-0.1,0.1-0.1,0.1h-14.5l0.5,3.1c0,0.1,0.1,0.1,0.1,0.1h17
				c0.1,0,0.1,0,0.1-0.1l3-17C217.1,106.2,217,106.2,216.9,106.2z"/>
			<path id="XMLID_375_" class="st5" d="M213.9,123.4h-17c-0.1,0-0.1,0-0.1-0.1l-3-17c0-0.1,0-0.1,0.1-0.1H217
				c0.1,0,0.1,0.1,0.1,0.1l-3,17C214,123.3,214,123.4,213.9,123.4z"/>
			<path id="XMLID_374_" class="st5" d="M194.5,121.6h-2.9l0,0c0,2.4,1.9,4.3,4.3,4.3h18.8c2.4,0,4.3-1.9,4.3-4.3l0,0h-2.9"/>
			<path id="XMLID_468_" class="st5" d="M215.3,117.6h3c1.9,0,3.5-1.6,3.5-3.5l0,0c0-1.9-1.6-3.5-3.5-3.5h-1.6"/>
			<path id="XMLID_472_" class="st5" d="M207.8,104.1c0-1.5-1.2-2.7-2.7-2.7s-2.7,1.2-2.7,2.7"/>
			<path id="XMLID_469_" class="st5" d="M209.5,99.7c-1.1-1.1-2.7-1.8-4.4-1.8s-3.3,0.7-4.4,1.8"/>
			<path id="XMLID_470_" class="st5" d="M212.2,97.1c-1.8-1.8-4.3-2.9-7-2.9s-5.2,1.1-7,2.9"/>
			<path id="XMLID_373_" class="st5" d="M196.3,93.4c-0.3,0.3-0.7,0.6-1,0.9"/>
			<path id="XMLID_365_" class="st5" d="M199.7,91.4c-0.4,0.2-0.8,0.4-1.2,0.6"/>
			<path id="XMLID_364_" class="st5" d="M203.7,90.3c-0.5,0-0.9,0.1-1.4,0.2"/>
			<path id="XMLID_657_" class="st5" d="M207.9,90.6c-0.5-0.1-0.9-0.2-1.4-0.2"/>
			<path id="XMLID_363_" class="st5" d="M211.7,92c-0.4-0.2-0.8-0.4-1.2-0.6"/>
			<path id="XMLID_362_" class="st5" d="M214.9,94.3c-0.3-0.3-0.6-0.6-1-0.9"/>
		</g>
		<g id="XMLID_453_">
			<circle id="XMLID_544_" class="st2" cx="46.6" cy="110.9" r="9.1"/>
			<circle id="XMLID_545_" class="st2" cx="67.7" cy="107" r="8.7"/>
			<path id="XMLID_497_" class="st12" d="M67.7,98.4c-2.8,0-5.3,1.4-6.9,3.4c1.5-1.1,3.3-1.8,5.2-1.8c4.8,0,8.7,3.9,8.7,8.7
				c0,2-0.7,3.8-1.8,5.2c2.1-1.6,3.4-4.1,3.4-6.9C76.4,102.2,72.5,98.4,67.7,98.4z"/>
			<circle id="XMLID_490_" class="st2" cx="57.1" cy="117.6" r="8.4"/>
			<path id="XMLID_489_" class="st9" d="M57.1,109.2c-2.7,0-5.2,1.3-6.7,3.3c1.4-1.1,3.1-1.7,5-1.7c4.6,0,8.4,3.7,8.4,8.4
				c0,1.9-0.6,3.6-1.7,5c2-1.5,3.3-4,3.3-6.7C65.5,113,61.7,109.2,57.1,109.2z"/>
			<g id="XMLID_460_">
				<g id="XMLID_2368_">
					<g id="XMLID_2375_">
						<path id="XMLID_488_" class="st5" d="M59,107c0-4.8,3.9-8.7,8.7-8.7c4.8,0,8.7,3.9,8.7,8.7s-3.9,8.7-8.7,8.7"/>
					</g>
					<line id="XMLID_487_" class="st5" x1="63.7" y1="109.8" x2="71.9" y2="109.8"/>
					<path id="XMLID_485_" class="st5" d="M66.3,109.8v2.2c0,0.8,0.7,1.5,1.5,1.5l0,0c0.8,0,1.5-0.7,1.5-1.5v-2.2"/>
					<line id="XMLID_483_" class="st5" x1="65.4" y1="105.5" x2="64" y2="105.5"/>
					<line id="XMLID_481_" class="st5" x1="71.2" y1="105.5" x2="69.8" y2="105.5"/>
				</g>
				<g id="XMLID_2361_">
					<g id="XMLID_2367_">
						<path id="XMLID_479_" class="st5" d="M55.2,107.1c-1.5-3.2-4.7-5.4-8.4-5.4c-5.1,0-9.3,4.1-9.3,9.3c0,5.1,4.1,9.3,9.3,9.3"/>
					</g>
					<g id="XMLID_2366_">
						<path id="XMLID_478_" class="st5" d="M47.5,113.7l-4.6,0.4c0,1.9,1.6,3.5,3.5,3.5"/>
					</g>
					<g id="XMLID_2363_">
						<path id="XMLID_1189_" class="st5" d="M45.1,108.5c0-0.8-0.6-1.4-1.4-1.4c-0.4,0-0.8,0.2-1,0.4c-0.3-0.3-0.6-0.4-1-0.4
							c-0.8,0-1.4,0.6-1.4,1.4c0,0.4,0.2,0.7,0.4,1l2.1,2l2.1-2.1l0.1-0.1C45,109.1,45.1,108.8,45.1,108.5z"/>
					</g>
					<g id="XMLID_2362_">
						<path id="XMLID_476_" class="st5" d="M52.9,108.5c0-0.8-0.6-1.4-1.4-1.4c-0.4,0-0.8,0.2-1,0.4c-0.3-0.3-0.6-0.4-1-0.4
							c-0.8,0-1.4,0.6-1.4,1.4c0,0.4,0.2,0.7,0.4,1l2.1,2l2.1-2.1l0.1-0.1C52.8,109.1,52.9,108.8,52.9,108.5z"/>
					</g>
				</g>
				<g id="XMLID_2376_">
					<g id="XMLID_2382_">
						<circle id="XMLID_1199_" class="st5" cx="57.1" cy="117.6" r="8.4"/>
					</g>
					<g id="XMLID_463_">
						<path id="XMLID_464_" class="st5" d="M56,115.5c-0.4-0.4-0.9-0.6-1.5-0.6s-1.1,0.2-1.5,0.6"/>
					</g>
					<g id="XMLID_461_">
						<path id="XMLID_462_" class="st5" d="M61.4,115.5c-0.4-0.4-0.9-0.6-1.5-0.6s-1.1,0.2-1.5,0.6"/>
					</g>
					<g id="XMLID_2379_">
						<path id="XMLID_1198_" class="st5" d="M53.3,119.5c0,2.1,1.7,3.7,3.7,3.7c2.1,0,3.7-1.7,3.7-3.7H53.3z"/>
					</g>
				</g>
			</g>
			<line id="XMLID_459_" class="st5" x1="56.5" y1="96.8" x2="56.5" y2="92.5"/>
			<line id="XMLID_458_" class="st5" x1="62" y1="93.5" x2="60.5" y2="97.5"/>
			<line id="XMLID_457_" class="st5" x1="46.3" y1="96.3" x2="49" y2="99.5"/>
			<line id="XMLID_456_" class="st5" x1="52.5" y1="97.5" x2="51.1" y2="93.5"/>
		</g>
		<g id="XMLID_122_">
			<line id="XMLID_125_" class="st7" x1="38.9" y1="126" x2="223" y2="126"/>
			<line id="XMLID_124_" class="st7" x1="225.8" y1="126" x2="228.5" y2="126"/>
			<line id="XMLID_123_" class="st7" x1="36.2" y1="126" x2="31.5" y2="126"/>
		</g>
	</g>
</g>
</svg>
