<svg xmlns="http://www.w3.org/2000/svg" viewBox="0 0 363.58 119.34"><title>plodo-logo_1</title><rect x="75.08" width="17" height="95.4" rx="8.5" style="fill:#1b1464"/><rect y="23.94" width="17" height="95.4" rx="8.5" style="fill:#1b1464"/><path d="M35.73,40.94A18.73,18.73,0,1,1,17,59.67,18.75,18.75,0,0,1,35.73,40.94m0-17A35.73,35.73,0,1,0,71.46,59.67,35.73,35.73,0,0,0,35.73,23.94Z" style="fill:#2e3192"/><path d="M281.32,40.94a18.73,18.73,0,1,1-18.73,18.73,18.75,18.75,0,0,1,18.73-18.73m0-17a35.73,35.73,0,1,0,35.73,35.73,35.73,35.73,0,0,0-35.73-35.73Z" style="fill:#2e3192"/><path d="M347,67.88A10.85,10.85,0,1,1,336.2,78.72,10.86,10.86,0,0,1,347,67.88m0-5.7a16.55,16.55,0,1,0,16.54,16.54A16.54,16.54,0,0,0,347,62.18Z" style="fill:#b3b3b3"/><path d="M131.34,40.94a18.73,18.73,0,1,1-18.73,18.73,18.75,18.75,0,0,1,18.73-18.73m0-17a35.73,35.73,0,1,0,35.73,35.73,35.73,35.73,0,0,0-35.73-35.73Z" style="fill:#2e3192"/><rect x="225.06" width="17" height="95.4" rx="8.5" style="fill:#1b1464"/><path d="M206.33,40.94A18.73,18.73,0,1,1,187.6,59.67a18.75,18.75,0,0,1,18.73-18.73m0-17a35.73,35.73,0,1,0,35.73,35.73,35.73,35.73,0,0,0-35.73-35.73Z" style="fill:#2e3192"/><path d="M325.73,62.11h0A2.86,2.86,0,0,1,328.58,65V92.54a2.86,2.86,0,0,1-2.85,2.86h0a2.86,2.86,0,0,1-2.86-2.86V65A2.86,2.86,0,0,1,325.73,62.11Z" style="fill:#b3b3b3"/><circle cx="325.73" cy="56.86" r="2.81" style="fill:#b3b3b3"/><circle cx="318.14" cy="92.46" r="2.81" style="fill:#b3b3b3"/></svg>