<svg xmlns="http://www.w3.org/2000/svg" viewBox="0 0 381.82 119.34"><title>plodo-logo</title><rect x="75.08" width="17" height="95.4" rx="8.5" style="fill:#1b1464"/><rect y="23.94" width="17" height="95.4" rx="8.5" style="fill:#1b1464"/><path d="M35.73,40.94A18.73,18.73,0,1,1,17,59.67,18.75,18.75,0,0,1,35.73,40.94m0-17A35.73,35.73,0,1,0,71.46,59.67,35.73,35.73,0,0,0,35.73,23.94Z" style="fill:#2e3192"/><path d="M281.32,40.94a18.73,18.73,0,1,1-18.73,18.73,18.75,18.75,0,0,1,18.73-18.73m0-17a35.73,35.73,0,1,0,35.73,35.73,35.73,35.73,0,0,0-35.73-35.73Z" style="fill:#2e3192"/><path d="M131.34,40.94a18.73,18.73,0,1,1-18.73,18.73,18.75,18.75,0,0,1,18.73-18.73m0-17a35.73,35.73,0,1,0,35.73,35.73,35.73,35.73,0,0,0-35.73-35.73Z" style="fill:#2e3192"/><rect x="225.06" width="17" height="95.4" rx="8.5" style="fill:#1b1464"/><path d="M206.33,40.94A18.73,18.73,0,1,1,187.6,59.67a18.75,18.75,0,0,1,18.73-18.73m0-17a35.73,35.73,0,1,0,35.73,35.73,35.73,35.73,0,0,0-35.73-35.73Z" style="fill:#2e3192"/><path d="M325.37,88.59h.82A2.86,2.86,0,0,1,329,91.45v1.09a2.86,2.86,0,0,1-2.85,2.86h-.82a2.86,2.86,0,0,1-2.85-2.86V91.45A2.86,2.86,0,0,1,325.37,88.59Z" style="fill:#b3b3b3"/><path d="M341.8,49.53h0a2.85,2.85,0,0,1,2.86,2.85V53a2.86,2.86,0,0,1-2.86,2.86h0A2.86,2.86,0,0,1,338.94,53v-.66A2.85,2.85,0,0,1,341.8,49.53Zm0,12.58h0A2.86,2.86,0,0,1,344.66,65V92.54a2.86,2.86,0,0,1-2.86,2.86h0a2.86,2.86,0,0,1-2.86-2.86V65A2.86,2.86,0,0,1,341.8,62.11Z" style="fill:#b3b3b3"/><path d="M377.38,65.29q4.44,4.3,4.44,12.67,0,8.08-3.91,13.35t-12.13,5.27a13.65,13.65,0,0,1-10.88-4.66q-4-4.67-4-12.53,0-8.42,4.25-13.41a14.2,14.2,0,0,1,11.41-5A15,15,0,0,1,377.38,65.29Zm-3.49,22.23a21.23,21.23,0,0,0,2.05-9.41,16.9,16.9,0,0,0-1.48-7.61q-2.34-4.6-8.09-4.61-5.08,0-7.41,3.93a18.39,18.39,0,0,0-2.31,9.48A16,16,0,0,0,359,88.19q2.32,3.56,7.35,3.55C370,91.74,372.52,90.33,373.89,87.52Z" style="fill:#b3b3b3"/></svg>