<?xml version="1.0" encoding="iso-8859-1"?>
<!-- Generator: Adobe Illustrator 19.0.0, SVG Export Plug-In . SVG Version: 6.00 Build 0)  -->
<svg version="1.1" id="Layer_1" xmlns="http://www.w3.org/2000/svg" xmlns:xlink="http://www.w3.org/1999/xlink" x="0px" y="0px"
	 viewBox="0 0 512 512" style="enable-background:new 0 0 512 512;" xml:space="preserve">
<path style="fill:#40596B;" d="M346.663,374.4l-12.8,102.4c-1.067,9.6-5.333,19.2-12.8,25.6c-4.267,5.333-11.733,9.6-20.267,9.6
	h-89.6c-8.533,0-14.933-4.267-20.267-8.533c-7.467-6.4-11.733-16-12.8-25.6l-12.8-102.4C146.13,275.2,186.663,220.8,186.663,220.8
	c57.6-99.2,41.6-186.667,41.6-186.667h56.533c0,0-16,88.533,41.6,186.667C325.33,219.733,365.863,273.067,346.663,374.4z"/>
<path style="fill:#ACB3BA;" d="M200.53,193.067h110.933c-40.533-87.467-26.667-160-26.667-160h-56.533
	C227.196,33.067,241.063,105.6,200.53,193.067z"/>
<path style="fill:#F2F2F2;" d="M302.93,171.733L255.996,182.4l-46.933-10.667c-4.267,11.733-9.6,23.467-16,36.267l26.667,6.4
	c4.267,14.933,19.2,26.667,35.2,26.667c17.067,0,30.933-10.667,35.2-26.667l26.667-6.4C312.53,195.2,307.196,183.467,302.93,171.733
	z"/>
<path style="opacity:0.1;fill:#231F20;enable-background:new    ;" d="M282.663,65.067c0-20.267,2.133-32,2.133-32h-56.533
	c0,0,2.133,11.733,2.133,32H282.663z"/>
<path style="fill:#ACB3BA;" d="M283.73,0h-55.467c-4.267,0-7.467,3.2-7.467,7.467V41.6c0,4.267,3.2,7.467,7.467,7.467h55.467
	c4.267,0,7.467-3.2,7.467-7.467V7.467C291.196,3.2,287.996,0,283.73,0z"/>
<path style="fill:#FFD15C;" d="M316.796,451.2h-121.6c0,0-21.333-100.267,0-121.6s100.267-21.333,121.6,0
	S316.796,451.2,316.796,451.2z"/>
<path style="fill:#FF7058;" d="M295.463,377.6c3.2-2.133,1.067-7.467-2.133-7.467h-22.4c-2.133,0-3.2-1.067-4.267-3.2l-7.467-21.333
	c-1.067-3.2-6.4-3.2-7.467,0l-7.467,21.333c0,2.133-2.133,3.2-4.267,3.2h-22.4c-4.267,0-5.333,5.333-2.133,7.467l18.133,13.867
	c1.067,1.067,2.133,3.2,1.067,4.267l-7.467,21.333c-1.067,3.2,3.2,6.4,6.4,4.267l18.133-13.867c1.067-1.067,3.2-1.067,4.267,0
	l18.133,13.867c3.2,2.133,7.467-1.067,6.4-4.267l-7.467-21.333c0-2.133,0-3.2,1.067-4.267L295.463,377.6z"/>
<g>
</g>
<g>
</g>
<g>
</g>
<g>
</g>
<g>
</g>
<g>
</g>
<g>
</g>
<g>
</g>
<g>
</g>
<g>
</g>
<g>
</g>
<g>
</g>
<g>
</g>
<g>
</g>
<g>
</g>
</svg>
