<?xml version="1.0" encoding="iso-8859-1"?>
<!-- Generator: Adobe Illustrator 19.0.0, SVG Export Plug-In . SVG Version: 6.00 Build 0)  -->
<svg version="1.1" id="Layer_1" xmlns="http://www.w3.org/2000/svg" xmlns:xlink="http://www.w3.org/1999/xlink" x="0px" y="0px"
	 viewBox="0 0 512 512" style="enable-background:new 0 0 512 512;" xml:space="preserve">
<path style="fill:#40596B;" d="M353.067,194.133L317.867,160c-21.333,22.4-65.067,59.733-134.4,77.867
	c0,0-61.867,8.533-115.2,87.467L9.6,401.067c-5.333,7.467-8.533,16-8.533,25.6c0,6.4,2.133,13.867,7.467,19.2L67.2,504.533
	C72.533,509.867,80,512,86.4,512c9.6,0,18.133-3.2,25.6-8.533l75.733-58.667c78.933-53.333,87.467-115.2,87.467-115.2
	C293.333,259.2,330.667,215.467,353.067,194.133z"/>
<path style="fill:#FF7058;" d="M353.067,194.133L317.867,160c-18.133,19.2-53.333,50.133-107.733,69.333l72.533,72.533
	C302.933,247.467,333.867,212.267,353.067,194.133z"/>
<path style="fill:#F2F2F2;" d="M291.2,282.667L253.867,259.2L230.4,221.867c-10.667,4.267-22.4,9.6-34.133,12.8l13.867,22.4
	c-7.467,12.8-5.333,29.867,6.4,40.533c10.667,10.667,27.733,12.8,40.533,6.4l22.4,13.867C282.667,304,286.933,293.333,291.2,282.667
	z"/>
<path style="fill:#FF7058;" d="M477.867,71.467L441.6,35.2c-2.133-2.133-6.4-2.133-9.6,0L402.133,64c-2.133,2.133-2.133,6.4,0,9.6
	l36.267,36.267c2.133,2.133,6.4,2.133,9.6,0L477.867,80C480,77.867,480,73.6,477.867,71.467z"/>
<path style="fill:#FFD15C;" d="M117.333,474.667l-80-80c0,0,51.2-80,80-80s80,51.2,80,80
	C197.333,423.467,117.333,474.667,117.333,474.667z"/>
<path style="fill:#FF7058;" d="M151.467,412.8c3.2,1.067,5.333-3.2,3.2-6.4l-14.933-14.933c-1.067-1.067-1.067-3.2-1.067-4.267
	l9.6-19.2c2.133-3.2-2.133-6.4-5.333-5.333l-17.067,10.667c-1.067,1.067-3.2,0-4.267-1.067l-14.933-14.933
	c-2.133-2.133-6.4,0-6.4,3.2l3.2,21.333c0,1.067-1.067,3.2-2.133,4.267l-19.2,8.533c-3.2,2.133-2.133,6.4,1.067,6.4l21.333,3.2
	c1.067,0,3.2,1.067,3.2,3.2l3.2,21.333c1.067,3.2,5.333,4.267,6.4,1.067l9.6-19.2c1.067-1.067,2.133-2.133,4.267-2.133
	L151.467,412.8z"/>
<path style="fill:#FFD15C;" d="M349.867,232.533c0,0,67.2-14.933,118.4,46.933L457.6,290.133
	C457.6,291.2,430.933,247.467,349.867,232.533z"/>
<path style="fill:#84DBFF;" d="M389.333,169.6c0,0,68.267-16,121.6,40.533L499.2,221.867
	C500.267,221.867,474.667,181.333,389.333,169.6z"/>
<path style="fill:#FFD15C;" d="M279.467,162.133c0,0,14.933-67.2-46.933-118.4L221.867,54.4
	C221.867,54.4,264.533,82.133,279.467,162.133z"/>
<g>
	<path style="fill:#84DBFF;" d="M343.467,120.533c0,0,13.867-69.333-44.8-120.533L288,11.733
		C286.933,11.733,328.533,35.2,343.467,120.533z"/>
	<path style="fill:#84DBFF;" d="M392.533,291.2L380.8,279.467h16c1.067,0,2.133-1.067,2.133-2.133c0-1.067-1.067-2.133-2.133-2.133
		h-16l11.733-11.733c1.067-1.067,1.067-3.2,0-3.2c-1.067-1.067-3.2-1.067-3.2,0L377.6,272v-16c0-1.067-1.067-2.133-2.133-2.133
		c-1.067,0-2.133,1.067-2.133,2.133v16L361.6,260.267c-1.067-1.067-3.2-1.067-3.2,0c-1.067,1.067-1.067,3.2,0,3.2l11.733,11.733H352
		c-1.067,0-2.133,1.067-2.133,2.133c0,1.067,0,1.067,1.067,2.133c0,0,1.067,1.067,2.133,1.067h16l-11.733,11.733
		c-1.067,1.067-1.067,3.2,0,3.2c1.067,1.067,3.2,1.067,3.2,0l11.733-11.733v16c0,1.067,0,1.067,1.067,2.133
		c0,0,1.067,1.067,2.133,1.067c1.067,0,2.133-1.067,2.133-2.133v-16l11.733,11.733c1.067,1.067,3.2,1.067,3.2,0
		C392.533,295.467,393.6,292.267,392.533,291.2z"/>
</g>
<path style="fill:#FFD15C;" d="M216.533,192L204.8,180.267h16c1.067,0,2.133-1.067,2.133-2.133c0-1.067-1.067-2.133-2.133-2.133h-16
	l11.733-11.733c1.067-1.067,1.067-3.2,0-3.2c-1.067-1.067-3.2-1.067-3.2,0L201.6,172.8v-16c0-1.067-1.067-2.133-2.133-2.133
	s-2.133,1.067-2.133,2.133v16l-12.8-12.8c-1.067-1.067-3.2-1.067-3.2,0c0,1.067-1.067,3.2,0,3.2l11.733,11.733h-16
	c-1.067,0-2.133,1.067-2.133,2.133c0,1.067,0,1.067,1.067,2.133c0,0,1.067,1.067,2.133,1.067H192L181.333,192
	c-1.067,1.067-1.067,3.2,0,3.2c1.067,1.067,3.2,1.067,3.2,0l11.733-11.733v16c0,1.067,0,1.067,1.067,2.133
	c0,0,1.067,1.067,2.133,1.067c1.067,0,2.133-1.067,2.133-2.133v-16l11.733,11.733c1.067,1.067,3.2,1.067,3.2,0
	C216.533,195.2,216.533,193.067,216.533,192z"/>
<g>
	<polygon style="fill:#FF7058;" points="403.2,324.267 391.467,336 393.6,352 378.667,344.533 364.8,352 366.933,336 355.2,324.267 
		371.2,322.133 378.667,307.2 386.133,322.133 	"/>
	<polygon style="fill:#FF7058;" points="245.333,94.933 233.6,106.667 236.8,122.667 221.867,115.2 206.933,122.667 
		209.067,106.667 197.333,94.933 214.4,92.8 220.8,77.867 228.267,92.8 	"/>
</g>
<polygon style="fill:#84DBFF;" points="343.467,312.533 336,320 338.133,330.667 328.533,326.4 318.933,330.667 320,320 
	312.533,313.6 323.2,311.467 327.467,301.867 332.8,311.467 "/>
<path style="fill:#F1543F;" d="M349.867,196.267L316.8,163.2c-2.133-2.133-2.133-4.267,0-6.4l0,0c2.133-2.133,4.267-2.133,6.4,0
	l33.067,33.067c2.133,2.133,2.133,4.267,0,6.4l0,0C354.133,198.4,350.933,198.4,349.867,196.267z"/>
<g>
</g>
<g>
</g>
<g>
</g>
<g>
</g>
<g>
</g>
<g>
</g>
<g>
</g>
<g>
</g>
<g>
</g>
<g>
</g>
<g>
</g>
<g>
</g>
<g>
</g>
<g>
</g>
<g>
</g>
</svg>
