<?xml version="1.0" encoding="iso-8859-1"?>
<!-- Generator: Adobe Illustrator 19.0.0, SVG Export Plug-In . SVG Version: 6.00 Build 0)  -->
<svg version="1.1" id="Capa_1" xmlns="http://www.w3.org/2000/svg" xmlns:xlink="http://www.w3.org/1999/xlink" x="0px" y="0px"
	 viewBox="0 0 490.667 490.667" style="enable-background:new 0 0 490.667 490.667;" xml:space="preserve">
<g>
	<path style="fill:#CFD8DC;" d="M341.333,426.606c-5.891,0-10.667-4.776-10.667-10.667c0-3.357,1.581-6.519,4.267-8.533
		c37.397-28.608,134.4-113.536,134.4-162.133c0-15.829-6.4-32-53.333-32c-5.891,0-10.667-4.776-10.667-10.667
		S410.109,191.94,416,191.94c49.536,0,74.667,17.941,74.667,53.333c0,67.947-128.235,167.957-142.933,179.2
		C345.887,425.858,343.641,426.606,341.333,426.606z"/>
	<path style="fill:#CFD8DC;" d="M416,191.94H32c-5.891,0-10.667,4.776-10.667,10.667c1.225,41.178,15.93,80.817,41.856,112.832
		c27.697,34.614,43.003,77.506,43.477,121.835c0,5.891,4.776,10.667,10.667,10.667h213.333c5.891,0,10.667-4.776,10.667-10.667
		c0.474-44.328,15.78-87.221,43.477-121.835c25.926-32.015,40.631-71.654,41.856-112.832C426.667,196.715,421.891,191.94,416,191.94
		z"/>
</g>
<g>
	<path style="fill:#8D6E63;" d="M138.667,149.273c-5.891,0.011-10.675-4.757-10.686-10.648c-0.005-2.84,1.123-5.565,3.134-7.571
		c13.056-13.056,7.701-28.885-2.133-53.653c-9.131-23.04-20.501-51.712,2.133-74.347c4.237-4.093,10.99-3.975,15.083,0.262
		c3.992,4.134,3.992,10.687,0,14.82c-12.096,12.096-6.891,27.413,2.624,51.392c9.344,23.595,20.992,52.971-2.624,76.608
		C144.202,148.139,141.493,149.267,138.667,149.273z"/>
	<path style="fill:#8D6E63;" d="M223.488,149.273c-5.891,0.011-10.675-4.757-10.686-10.648c-0.005-2.84,1.123-5.565,3.134-7.571
		c13.056-13.056,7.701-28.885-2.133-53.653c-9.131-23.04-20.501-51.712,2.133-74.347c4.237-4.093,10.99-3.975,15.083,0.262
		c3.992,4.134,3.992,10.687,0,14.82c-12.096,12.096-6.891,27.413,2.624,51.392c9.344,23.595,20.992,52.971-2.624,76.608
		C229.023,148.139,226.315,149.267,223.488,149.273z"/>
	<path style="fill:#8D6E63;" d="M308.821,149.273c-5.891,0.011-10.675-4.757-10.686-10.648c-0.005-2.84,1.123-5.565,3.134-7.571
		c13.056-13.056,7.701-28.885-2.133-53.653c-9.131-23.04-20.501-51.712,2.133-74.347c4.237-4.093,10.99-3.975,15.083,0.262
		c3.992,4.134,3.992,10.687,0,14.82c-12.096,12.096-6.891,27.413,2.624,51.392c9.344,23.595,20.992,52.971-2.624,76.608
		C314.356,148.139,311.648,149.267,308.821,149.273z"/>
</g>
<path style="fill:#B0BEC5;" d="M437.333,426.606H10.667C4.776,426.606,0,431.382,0,437.273c0,29.455,23.878,53.333,53.333,53.333
	h341.333c29.455,0,53.333-23.878,53.333-53.333C448,431.382,443.224,426.606,437.333,426.606z"/>
<g>
</g>
<g>
</g>
<g>
</g>
<g>
</g>
<g>
</g>
<g>
</g>
<g>
</g>
<g>
</g>
<g>
</g>
<g>
</g>
<g>
</g>
<g>
</g>
<g>
</g>
<g>
</g>
<g>
</g>
</svg>
